<?xml version="1.0" standalone="no"?>
<!DOCTYPE svg PUBLIC "-//W3C//DTD SVG 20010904//EN"
 "http://www.w3.org/TR/2001/REC-SVG-20010904/DTD/svg10.dtd">
<svg version="1.0" xmlns="http://www.w3.org/2000/svg"
 width="100.000000pt" height="150.000000pt" viewBox="0 0 450.000000 338.000000"
 preserveAspectRatio="xMidYMid meet">
<metadata>
Created by potrace 1.10, written by Peter Selinger 2001-2011
</metadata>
<g transform="translate(0.000000,338.000000) scale(0.100000,-0.100000)"
stroke="#284F7E" stroke-width="20" fill=" #31A0C1">
<path d="M865 2325 c-48 -24 -128 -94 -200 -175 -101 -114 -427 -549 -509
-679 -50 -79 -10 -39 71 72 97 132 337 421 459 554 102 110 216 206 240 201
25 -4 34 -51 23 -120 -5 -33 -46 -164 -91 -291 -100 -288 -141 -425 -162 -546
-27 -157 -19 -221 29 -243 21 -9 30 -7 60 13 39 26 130 135 179 213 28 45 31
47 36 25 12 -48 36 -31 142 98 130 157 214 250 221 243 3 -3 -30 -80 -73 -170
-85 -177 -100 -233 -64 -238 23 -3 79 53 244 245 52 61 96 109 98 108 1 -1
-13 -49 -32 -106 -48 -143 -53 -177 -30 -186 22 -8 70 45 120 132 39 70 41 69
14 -10 -23 -66 -26 -109 -8 -103 7 3 34 43 62 91 27 48 51 86 53 83 2 -2 -10
-41 -27 -87 -16 -45 -30 -89 -30 -96 0 -26 17 -12 39 35 31 65 131 242 137
242 11 0 -8 -53 -83 -227 -3 -7 2 -13 10 -13 12 0 57 83 57 105 0 3 8 18 17
32 l17 26 7 -24 c4 -13 7 -41 8 -62 1 -26 9 -46 26 -63 23 -22 31 -24 87 -20
73 6 73 6 167 145 39 58 71 100 71 94 0 -20 -66 -158 -141 -296 -72 -131 -74
-134 -278 -342 -113 -116 -224 -237 -245 -269 -69 -104 -80 -170 -32 -182 30
-7 69 9 142 61 106 76 225 244 320 454 24 52 54 96 97 141 74 77 160 177 208
241 29 39 37 44 52 35 19 -12 37 4 145 129 35 40 42 45 37 25 -15 -63 -18
-120 -6 -120 6 0 35 36 63 80 29 44 53 78 54 77 1 -1 -8 -33 -22 -72 -48 -142
-20 -142 75 1 39 58 71 100 71 94 0 -6 -18 -84 -41 -173 l-40 -162 -137 -140
c-257 -262 -358 -392 -369 -474 -5 -33 -1 -44 22 -66 24 -25 32 -27 73 -21 77
10 164 59 226 128 77 85 128 194 173 370 l38 147 108 109 c89 91 111 108 131
105 42 -8 95 17 231 108 73 49 135 89 138 89 3 0 -5 -29 -18 -65 -27 -72 -32
-115 -12 -115 7 0 48 25 92 56 96 67 173 104 220 104 30 0 40 -7 79 -59 57
-74 83 -95 149 -120 71 -26 193 -39 440 -47 203 -7 207 -7 207 13 0 19 -9 20
-247 27 -380 11 -438 27 -524 141 -23 31 -50 60 -60 65 -53 29 -154 -10 -273
-105 -38 -30 -71 -53 -74 -51 -2 3 8 41 24 86 23 70 25 83 13 95 -18 19 -39 8
-168 -84 -106 -76 -170 -111 -201 -111 -26 0 -26 3 10 51 33 47 70 138 70 174
0 28 -32 65 -56 65 -9 0 -33 -17 -54 -38 -43 -43 -62 -97 -64 -186 -1 -59 -2
-60 -71 -136 -38 -43 -71 -77 -73 -75 -1 1 9 51 23 111 13 61 27 136 31 168 6
53 6 58 -12 54 -11 -2 -42 -41 -76 -97 -32 -52 -62 -99 -67 -104 -5 -5 2 28
15 74 28 95 29 109 11 109 -7 0 -35 -36 -61 -81 -27 -44 -50 -79 -52 -76 -2 2
2 29 8 60 9 42 9 60 1 68 -16 16 -26 8 -104 -94 -104 -135 -118 -129 -44 18
51 101 69 185 41 185 -11 0 -28 -23 -48 -67 -17 -38 -45 -88 -61 -113 -40 -60
-210 -290 -213 -287 -1 1 18 43 42 92 50 103 97 242 89 263 -3 8 -12 11 -21 8
-13 -5 -14 -1 -9 22 9 41 -16 60 -48 39 -48 -31 -134 -183 -158 -279 -11 -39
-17 -48 -40 -53 -33 -7 -66 8 -72 32 -3 10 -8 39 -12 65 -3 26 -13 54 -21 62
-10 10 -12 27 -8 60 6 38 4 46 -9 46 -21 0 -51 -40 -88 -117 -16 -35 -32 -63
-34 -63 -2 0 3 22 10 50 8 32 10 52 3 56 -13 8 -10 12 -74 -102 -30 -54 -53
-90 -50 -79 3 11 17 59 31 107 30 100 30 101 17 106 -6 2 -31 -37 -58 -85 -55
-102 -104 -177 -111 -169 -3 2 14 69 36 147 65 225 34 218 -174 -40 -76 -96
-141 -169 -143 -163 -1 5 22 68 53 138 92 210 107 254 94 270 -6 8 -16 14 -21
14 -22 0 -133 -120 -219 -236 -50 -68 -94 -123 -96 -121 -9 10 53 155 103 239
88 148 209 399 227 471 27 104 19 148 -18 111 -23 -24 -213 -410 -265 -539
-80 -201 -297 -535 -346 -535 -25 0 -26 24 -4 151 29 175 48 249 138 549 88
292 107 385 91 443 -18 66 -53 82 -114 52z m2169 -544 c9 -14 -11 -59 -62
-141 -43 -68 -47 -73 -50 -47 -6 47 18 136 45 167 24 29 56 39 67 21z m-837
-132 c-23 -64 -83 -165 -114 -190 -14 -12 -15 -11 -9 11 24 82 128 262 143
247 2 -2 -7 -33 -20 -68z m454 -521 c-17 -56 -49 -140 -72 -186 -70 -143 -198
-251 -303 -255 -38 -2 -41 0 -44 25 -5 42 40 116 129 214 92 99 312 314 317
309 2 -2 -10 -50 -27 -107z m-717 -135 c-69 -120 -144 -224 -209 -289 -71 -72
-162 -140 -172 -130 -3 3 7 31 22 63 22 46 63 93 203 231 97 94 177 172 180
172 2 0 -8 -21 -24 -47z"/>
</g>
</svg>
