<svg xmlns="http://www.w3.org/2000/svg" width="2560" height="1600"><path d="M1192,1000L917,1147L1154,1196Z" fill="#f6eada" stroke="#f6eada" stroke-width="1.51"/><path d="M1192,1000L986,861L917,1147Z" fill="#f6ece3" stroke="#f6ece3" stroke-width="1.51"/><path d="M917,1147L1119,1406L1154,1196Z" fill="#f4e7d3" stroke="#f4e7d3" stroke-width="1.51"/><path d="M1154,1196L1486,1106L1192,1000Z" fill="#f8ebd9" stroke="#f8ebd9" stroke-width="1.51"/><path d="M986,861L711,997L917,1147Z" fill="#f4ebe5" stroke="#f4ebe5" stroke-width="1.51"/><path d="M917,1147L814,1373L1119,1406Z" fill="#f1e5d4" stroke="#f1e5d4" stroke-width="1.51"/><path d="M704,1358L814,1373L917,1147Z" fill="#f0e5d6" stroke="#f0e5d6" stroke-width="1.51"/><path d="M1573,1270L1486,1106L1154,1196Z" fill="#f7e6cd" stroke="#f7e6cd" stroke-width="1.51"/><path d="M1192,1000L1115,639L986,861Z" fill="#f7f0ed" stroke="#f7f0ed" stroke-width="1.51"/><path d="M1481,643L1115,639L1192,1000Z" fill="#f8f2ef" stroke="#f8f2ef" stroke-width="1.51"/><path d="M986,861L888,607L711,997Z" fill="#f4f0f2" stroke="#f4f0f2" stroke-width="1.51"/><path d="M567,1216L704,1358L917,1147Z" fill="#f0e6d8" stroke="#f0e6d8" stroke-width="1.51"/><path d="M1486,1106L1491,925L1192,1000Z" fill="#f9ebda" stroke="#f9ebda" stroke-width="1.51"/><path d="M1115,639L888,607L986,861Z" fill="#f4f0f4" stroke="#f4f0f4" stroke-width="1.51"/><path d="M711,997L567,1216L917,1147Z" fill="#f2e9de" stroke="#f2e9de" stroke-width="1.51"/><path d="M471,927L567,1216L711,997Z" fill="#efe8e4" stroke="#efe8e4" stroke-width="1.51"/><path d="M1486,1106L1625,863L1491,925Z" fill="#f8ead8" stroke="#f8ead8" stroke-width="1.51"/><path d="M1458,1480L1573,1270L1154,1196Z" fill="#f4e5cb" stroke="#f4e5cb" stroke-width="1.51"/><path d="M1119,1406L1458,1480L1154,1196Z" fill="#f3e6d0" stroke="#f3e6d0" stroke-width="1.51"/><path d="M1325,1701L1458,1480L1119,1406Z" fill="#eee2cb" stroke="#eee2cb" stroke-width="1.51"/><path d="M917,1683L1119,1406L814,1373Z" fill="#ebe3d1" stroke="#ebe3d1" stroke-width="1.51"/><path d="M443,757L471,927L711,997Z" fill="#efebef" stroke="#efebef" stroke-width="1.51"/><path d="M1491,925L1481,643L1192,1000Z" fill="#f9efe5" stroke="#f9efe5" stroke-width="1.51"/><path d="M1115,639L878,357L888,607Z" fill="#f0eff7" stroke="#f0eff7" stroke-width="1.51"/><path d="M1586,713L1481,643L1491,925Z" fill="#f8eee4" stroke="#f8eee4" stroke-width="1.51"/><path d="M1573,1270L1625,863L1486,1106Z" fill="#f8e7ce" stroke="#f8e7ce" stroke-width="1.51"/><path d="M552,1654L917,1683L814,1373Z" fill="#e7e1d2" stroke="#e7e1d2" stroke-width="1.51"/><path d="M552,1654L814,1373L704,1358Z" fill="#e9e2d4" stroke="#e9e2d4" stroke-width="1.51"/><path d="M1625,863L1586,713L1491,925Z" fill="#f9ecdf" stroke="#f9ecdf" stroke-width="1.51"/><path d="M917,1683L1147,1718L1119,1406Z" fill="#eae1ce" stroke="#eae1ce" stroke-width="1.51"/><path d="M1147,1718L1325,1701L1119,1406Z" fill="#ebe1cc" stroke="#ebe1cc" stroke-width="1.51"/><path d="M888,607L549,614L711,997Z" fill="#f1eff6" stroke="#f1eff6" stroke-width="1.51"/><path d="M549,614L443,757L711,997Z" fill="#efeef6" stroke="#efeef6" stroke-width="1.51"/><path d="M567,1216L434,1397L704,1358Z" fill="#ebe2d7" stroke="#ebe2d7" stroke-width="1.51"/><path d="M297,1254L434,1397L567,1216Z" fill="#e8e0d7" stroke="#e8e0d7" stroke-width="1.51"/><path d="M297,1254L567,1216L471,927Z" fill="#ebe3de" stroke="#ebe3de" stroke-width="1.51"/><path d="M1458,1480L1628,1487L1573,1270Z" fill="#f1e1c2" stroke="#f1e1c2" stroke-width="1.51"/><path d="M1573,1270L1979,968L1625,863Z" fill="#f7e6ca" stroke="#f7e6ca" stroke-width="1.51"/><path d="M1605,1716L1628,1487L1458,1480Z" fill="#ecdebf" stroke="#ecdebf" stroke-width="1.51"/><path d="M888,607L577,430L549,614Z" fill="#edeefa" stroke="#edeefa" stroke-width="1.51"/><path d="M1211,341L878,357L1115,639Z" fill="#f0eff7" stroke="#f0eff7" stroke-width="1.51"/><path d="M1409,366L1211,341L1115,639Z" fill="#f2f0f5" stroke="#f2f0f5" stroke-width="1.51"/><path d="M1409,366L1115,639L1481,643Z" fill="#f4eff0" stroke="#f4eff0" stroke-width="1.51"/><path d="M434,1397L552,1654L704,1358Z" fill="#e6e0d5" stroke="#e6e0d5" stroke-width="1.51"/><path d="M917,1683L1113,1910L1147,1718Z" fill="#eae1ce" stroke="#eae1ce" stroke-width="1.51"/><path d="M163,1266L297,1254L71,952Z" fill="#e3dcdc" stroke="#e3dcdc" stroke-width="1.51"/><path d="M434,1397L383,1659L552,1654Z" fill="#e1dcd3" stroke="#e1dcd3" stroke-width="1.51"/><path d="M1693,444L1409,366L1481,643Z" fill="#f3ede9" stroke="#f3ede9" stroke-width="1.51"/><path d="M878,357L577,430L888,607Z" fill="#edeffb" stroke="#edeffb" stroke-width="1.51"/><path d="M549,614L218,589L443,757Z" fill="#e7e9f8" stroke="#e7e9f8" stroke-width="1.51"/><path d="M1325,1701L1605,1716L1458,1480Z" fill="#ebdfc3" stroke="#ebdfc3" stroke-width="1.51"/><path d="M1147,1718L1113,1910L1325,1701Z" fill="#ebe1cc" stroke="#ebe1cc" stroke-width="1.51"/><path d="M927,2023L1113,1910L917,1683Z" fill="#e9e1cf" stroke="#e9e1cf" stroke-width="1.51"/><path d="M1427,2024L1605,1716L1325,1701Z" fill="#ebdfc4" stroke="#ebdfc4" stroke-width="1.51"/><path d="M878,357L687,246L577,430Z" fill="#e8ecfc" stroke="#e8ecfc" stroke-width="1.51"/><path d="M1211,341L891,247L878,357Z" fill="#eaebf9" stroke="#eaebf9" stroke-width="1.51"/><path d="M1114,87L891,247L1211,341Z" fill="#e6e8f8" stroke="#e6e8f8" stroke-width="1.51"/><path d="M600,2029L927,2023L917,1683Z" fill="#e7e0d1" stroke="#e7e0d1" stroke-width="1.51"/><path d="M195,1511L383,1659L434,1397Z" fill="#dedad4" stroke="#dedad4" stroke-width="1.51"/><path d="M577,430L431,436L549,614Z" fill="#e8ebfc" stroke="#e8ebfc" stroke-width="1.51"/><path d="M71,952L297,1254L471,927Z" fill="#e7e1e4" stroke="#e7e1e4" stroke-width="1.51"/><path d="M350,174L431,436L577,430Z" fill="#e1e7fd" stroke="#e1e7fd" stroke-width="1.51"/><path d="M1586,713L1693,444L1481,643Z" fill="#f5ece4" stroke="#f5ece4" stroke-width="1.51"/><path d="M1866,656L1693,444L1586,713Z" fill="#f5eade" stroke="#f5eade" stroke-width="1.51"/><path d="M1866,656L1586,713L1625,863Z" fill="#f7ebdd" stroke="#f7ebdd" stroke-width="1.51"/><path d="M1409,366L1339,224L1211,341Z" fill="#edecf4" stroke="#edecf4" stroke-width="1.51"/><path d="M1749,151L1339,224L1409,366Z" fill="#eae6ec" stroke="#eae6ec" stroke-width="1.51"/><path d="M1628,1487L1939,1276L1573,1270Z" fill="#f2dfbc" stroke="#f2dfbc" stroke-width="1.51"/><path d="M1981,1355L1939,1276L1628,1487Z" fill="#f0ddb6" stroke="#f0ddb6" stroke-width="1.51"/><path d="M891,247L687,246L878,357Z" fill="#e6eafb" stroke="#e6eafb" stroke-width="1.51"/><path d="M680,-144L687,246L891,247Z" fill="#dde3fb" stroke="#dde3fb" stroke-width="1.51"/><path d="M1979,968L1866,656L1625,863Z" fill="#f8e9d4" stroke="#f8e9d4" stroke-width="1.51"/><path d="M297,1254L195,1511L434,1397Z" fill="#e2dbd6" stroke="#e2dbd6" stroke-width="1.51"/><path d="M71,952L471,927L443,757Z" fill="#e8e6f0" stroke="#e8e6f0" stroke-width="1.51"/><path d="M1939,1276L1979,968L1573,1270Z" fill="#f6e1bc" stroke="#f6e1bc" stroke-width="1.51"/><path d="M600,2029L917,1683L552,1654Z" fill="#e5e0d2" stroke="#e5e0d2" stroke-width="1.51"/><path d="M1113,1910L1427,2024L1325,1701Z" fill="#ece2cb" stroke="#ece2cb" stroke-width="1.51"/><path d="M163,1266L195,1511L297,1254Z" fill="#e1d9d7" stroke="#e1d9d7" stroke-width="1.51"/><path d="M1939,1276L2124,1115L1979,968Z" fill="#f4e0ba" stroke="#f4e0ba" stroke-width="1.51"/><path d="M1931,1755L1981,1355L1628,1487Z" fill="#ecdab3" stroke="#ecdab3" stroke-width="1.51"/><path d="M431,436L218,589L549,614Z" fill="#e5e8fa" stroke="#e5e8fa" stroke-width="1.51"/><path d="M49,436L218,589L431,436Z" fill="#dfe4fb" stroke="#dfe4fb" stroke-width="1.51"/><path d="M1339,224L1114,87L1211,341Z" fill="#e8e9f6" stroke="#e8e9f6" stroke-width="1.51"/><path d="M218,589L71,952L443,757Z" fill="#e5e6f6" stroke="#e5e6f6" stroke-width="1.51"/><path d="M-162,1416L95,1749L195,1511Z" fill="#d5d2d3" stroke="#d5d2d3" stroke-width="1.51"/><path d="M927,2023L1427,2024L1113,1910Z" fill="#ebe1cd" stroke="#ebe1cd" stroke-width="1.51"/><path d="M1605,1716L1931,1755L1628,1487Z" fill="#eadbb8" stroke="#eadbb8" stroke-width="1.51"/><path d="M927,2023L600,2029L1427,2024Z" fill="#e9e1cf" stroke="#e9e1cf" stroke-width="1.51"/><path d="M385,2035L600,2029L552,1654Z" fill="#e1ddd3" stroke="#e1ddd3" stroke-width="1.51"/><path d="M385,2035L552,1654L383,1659Z" fill="#dfdbd2" stroke="#dfdbd2" stroke-width="1.51"/><path d="M1981,1355L2124,1115L1939,1276Z" fill="#f2ddb4" stroke="#f2ddb4" stroke-width="1.51"/><path d="M1979,968L2227,631L1866,656Z" fill="#f5e7d2" stroke="#f5e7d2" stroke-width="1.51"/><path d="M2124,1115L2145,972L1979,968Z" fill="#f3e2c1" stroke="#f3e2c1" stroke-width="1.51"/><path d="M1866,656L1925,349L1693,444Z" fill="#f2e8dc" stroke="#f2e8dc" stroke-width="1.51"/><path d="M1427,2024L1641,2016L1605,1716Z" fill="#ebdebf" stroke="#ebdebf" stroke-width="1.51"/><path d="M1981,1355L2265,1367L2124,1115Z" fill="#efdbb2" stroke="#efdbb2" stroke-width="1.51"/><path d="M1911,1894L1931,1755L1605,1716Z" fill="#eadab4" stroke="#eadab4" stroke-width="1.51"/><path d="M1339,224L1212,-26L1114,87Z" fill="#e2e4f6" stroke="#e2e4f6" stroke-width="1.51"/><path d="M1114,87L985,-124L891,247Z" fill="#dde2f8" stroke="#dde2f8" stroke-width="1.51"/><path d="M1369,-19L1212,-26L1339,224Z" fill="#e1e2f4" stroke="#e1e2f4" stroke-width="1.51"/><path d="M1749,151L1369,-19L1339,224Z" fill="#e4e2ec" stroke="#e4e2ec" stroke-width="1.51"/><path d="M2138,472L1925,349L1866,656Z" fill="#f1e6d7" stroke="#f1e6d7" stroke-width="1.51"/><path d="M1749,151L1409,366L1693,444Z" fill="#eee8e7" stroke="#eee8e7" stroke-width="1.51"/><path d="M218,589L-153,605L71,952Z" fill="#dee1f6" stroke="#dee1f6" stroke-width="1.51"/><path d="M687,246L350,174L577,430Z" fill="#e1e7fd" stroke="#e1e7fd" stroke-width="1.51"/><path d="M441,-27L350,174L687,246Z" fill="#d7e0fd" stroke="#d7e0fd" stroke-width="1.51"/><path d="M1925,349L1749,151L1693,444Z" fill="#ede5df" stroke="#ede5df" stroke-width="1.51"/><path d="M144,1922L385,2035L383,1659Z" fill="#dbd8d2" stroke="#dbd8d2" stroke-width="1.51"/><path d="M600,2029L385,2035L1427,2024Z" fill="#e7e0d1" stroke="#e7e0d1" stroke-width="1.51"/><path d="M195,1511L95,1749L383,1659Z" fill="#d9d6d2" stroke="#d9d6d2" stroke-width="1.51"/><path d="M-162,1416L195,1511L163,1266Z" fill="#dad5d6" stroke="#dad5d6" stroke-width="1.51"/><path d="M1641,2016L1911,1894L1605,1716Z" fill="#eadbb8" stroke="#eadbb8" stroke-width="1.51"/><path d="M2165,1709L2265,1367L1981,1355Z" fill="#e9d8af" stroke="#e9d8af" stroke-width="1.51"/><path d="M350,174L49,436L431,436Z" fill="#dce3fd" stroke="#dce3fd" stroke-width="1.51"/><path d="M71,952L-188,1222L163,1266Z" fill="#dfd8dc" stroke="#dfd8dc" stroke-width="1.51"/><path d="M1212,-26L985,-124L1114,87Z" fill="#dce0f7" stroke="#dce0f7" stroke-width="1.51"/><path d="M1123,-297L985,-124L1212,-26Z" fill="#dce0f7" stroke="#dce0f7" stroke-width="1.51"/><path d="M1925,349L1947,133L1749,151Z" fill="#e8dfdb" stroke="#e8dfdb" stroke-width="1.51"/><path d="M2227,631L2138,472L1866,656Z" fill="#f1e6d4" stroke="#f1e6d4" stroke-width="1.51"/><path d="M95,1749L144,1922L383,1659Z" fill="#d8d5d2" stroke="#d8d5d2" stroke-width="1.51"/><path d="M2124,1115L2406,911L2145,972Z" fill="#f1e0c1" stroke="#f1e0c1" stroke-width="1.51"/><path d="M2145,972L2227,631L1979,968Z" fill="#f4e5cc" stroke="#f4e5cc" stroke-width="1.51"/><path d="M2165,1709L1981,1355L1931,1755Z" fill="#e7d7ae" stroke="#e7d7ae" stroke-width="1.51"/><path d="M-153,605L-185,943L71,952Z" fill="#dedff2" stroke="#dedff2" stroke-width="1.51"/><path d="M95,1749L-97,1921L144,1922Z" fill="#d4d1d2" stroke="#d4d1d2" stroke-width="1.51"/><path d="M-185,943L-188,1222L71,952Z" fill="#dedbe4" stroke="#dedbe4" stroke-width="1.51"/><path d="M2406,911L2227,631L2145,972Z" fill="#f1e4cc" stroke="#f1e4cc" stroke-width="1.51"/><path d="M680,-144L441,-27L687,246Z" fill="#d6defc" stroke="#d6defc" stroke-width="1.51"/><path d="M350,174L152,86L49,436Z" fill="#d3dcfc" stroke="#d3dcfc" stroke-width="1.51"/><path d="M-188,1222L-162,1416L163,1266Z" fill="#dbd5d7" stroke="#dbd5d7" stroke-width="1.51"/><path d="M985,-124L680,-144L891,247Z" fill="#d8dffa" stroke="#d8dffa" stroke-width="1.51"/><path d="M2168,1914L2165,1709L1931,1755Z" fill="#e6d7ae" stroke="#e6d7ae" stroke-width="1.51"/><path d="M-123,417L-153,605L49,436Z" fill="#d7dffb" stroke="#d7dffb" stroke-width="1.51"/><path d="M49,436L-153,605L218,589Z" fill="#d9e0fa" stroke="#d9e0fa" stroke-width="1.51"/><path d="M2115,147L1947,133L1925,349Z" fill="#e6ded8" stroke="#e6ded8" stroke-width="1.51"/><path d="M1749,151L1739,-87L1369,-19Z" fill="#dfdce6" stroke="#dfdce6" stroke-width="1.51"/><path d="M1369,-19L1123,-297L1212,-26Z" fill="#dde0f5" stroke="#dde0f5" stroke-width="1.51"/><path d="M2265,1367L2380,1252L2124,1115Z" fill="#eddbb2" stroke="#eddbb2" stroke-width="1.51"/><path d="M2517,1358L2380,1252L2265,1367Z" fill="#e9d8af" stroke="#e9d8af" stroke-width="1.51"/><path d="M441,-27L152,86L350,174Z" fill="#cfd9fc" stroke="#cfd9fc" stroke-width="1.51"/><path d="M161,-94L152,86L441,-27Z" fill="#c9d5fc" stroke="#c9d5fc" stroke-width="1.51"/><path d="M1947,133L1739,-87L1749,151Z" fill="#e1dbdd" stroke="#e1dbdd" stroke-width="1.51"/><path d="M985,-124L810,-395L680,-144Z" fill="#d8dffa" stroke="#d8dffa" stroke-width="1.51"/><path d="M-100,186L-123,417L49,436Z" fill="#d3dcfc" stroke="#d3dcfc" stroke-width="1.51"/><path d="M-417,741L-294,1008L-185,943Z" fill="#dedeee" stroke="#dedeee" stroke-width="1.51"/><path d="M-185,943L-294,1008L-188,1222Z" fill="#dedae3" stroke="#dedae3" stroke-width="1.51"/><path d="M-188,1222L-476,1442L-162,1416Z" fill="#dad4d6" stroke="#dad4d6" stroke-width="1.51"/><path d="M-404,1149L-294,1008L-417,741Z" fill="#dedce9" stroke="#dedce9" stroke-width="1.51"/><path d="M2489,410L2115,147L2138,472Z" fill="#e8e1d6" stroke="#e8e1d6" stroke-width="1.51"/><path d="M2138,472L2115,147L1925,349Z" fill="#eae2d8" stroke="#eae2d8" stroke-width="1.51"/><path d="M2380,1252L2406,911L2124,1115Z" fill="#efddb9" stroke="#efddb9" stroke-width="1.51"/><path d="M1448,-347L1123,-297L1369,-19Z" fill="#dee0f3" stroke="#dee0f3" stroke-width="1.51"/><path d="M-347,1605L-161,1721L-162,1416Z" fill="#d3d1d3" stroke="#d3d1d3" stroke-width="1.51"/><path d="M-162,1416L-161,1721L95,1749Z" fill="#d3d0d2" stroke="#d3d0d2" stroke-width="1.51"/><path d="M2165,1709L2391,1721L2265,1367Z" fill="#e3d5ac" stroke="#e3d5ac" stroke-width="1.51"/><path d="M1911,1894L2168,1914L1931,1755Z" fill="#e8d7ae" stroke="#e8d7ae" stroke-width="1.51"/><path d="M1641,2016L2168,1914L1911,1894Z" fill="#e9d8b0" stroke="#e9d8b0" stroke-width="1.51"/><path d="M2489,410L2138,472L2227,631Z" fill="#ece3d4" stroke="#ece3d4" stroke-width="1.51"/><path d="M1947,133L1992,-99L1739,-87Z" fill="#ded7da" stroke="#ded7da" stroke-width="1.51"/><path d="M-161,1721L-97,1921L95,1749Z" fill="#d3d0d2" stroke="#d3d0d2" stroke-width="1.51"/><path d="M144,1922L-97,1921L385,2035Z" fill="#d7d4d3" stroke="#d7d4d3" stroke-width="1.51"/><path d="M2406,911L2468,762L2227,631Z" fill="#efe4ce" stroke="#efe4ce" stroke-width="1.51"/><path d="M2729,1000L2468,762L2406,911Z" fill="#ece0c5" stroke="#ece0c5" stroke-width="1.51"/><path d="M-417,741L-185,943L-153,605Z" fill="#dde0f5" stroke="#dde0f5" stroke-width="1.51"/><path d="M152,86L-100,186L49,436Z" fill="#ced9fc" stroke="#ced9fc" stroke-width="1.51"/><path d="M-39,-74L-100,186L152,86Z" fill="#c5d1fb" stroke="#c5d1fb" stroke-width="1.51"/><path d="M-294,1008L-404,1149L-188,1222Z" fill="#ded8de" stroke="#ded8de" stroke-width="1.51"/><path d="M-161,1721L-392,2023L-97,1921Z" fill="#d3d0d2" stroke="#d3d0d2" stroke-width="1.51"/><path d="M-417,741L-153,605L-464,426Z" fill="#dadff9" stroke="#dadff9" stroke-width="1.51"/><path d="M302,-303L441,-27L680,-144Z" fill="#d0dafc" stroke="#d0dafc" stroke-width="1.51"/><path d="M302,-303L161,-94L441,-27Z" fill="#cbd6fc" stroke="#cbd6fc" stroke-width="1.51"/><path d="M1682,-422L1448,-347L1739,-87Z" fill="#dedbe6" stroke="#dedbe6" stroke-width="1.51"/><path d="M1739,-87L1448,-347L1369,-19Z" fill="#deddea" stroke="#deddea" stroke-width="1.51"/><path d="M2380,1252L2716,1154L2406,911Z" fill="#ebdbb6" stroke="#ebdbb6" stroke-width="1.51"/><path d="M2168,1914L2391,1721L2165,1709Z" fill="#e3d5ac" stroke="#e3d5ac" stroke-width="1.51"/><path d="M2391,1721L2517,1358L2265,1367Z" fill="#e4d5ac" stroke="#e4d5ac" stroke-width="1.51"/><path d="M1448,-347L810,-395L1123,-297Z" fill="#dce0f7" stroke="#dce0f7" stroke-width="1.51"/><path d="M1123,-297L810,-395L985,-124Z" fill="#dadff8" stroke="#dadff8" stroke-width="1.51"/><path d="M2115,147L2087,-11L1947,133Z" fill="#e0d9d8" stroke="#e0d9d8" stroke-width="1.51"/><path d="M2399,-10L2087,-11L2115,147Z" fill="#dbd5d6" stroke="#dbd5d6" stroke-width="1.51"/><path d="M-476,1442L-347,1605L-162,1416Z" fill="#d6d2d4" stroke="#d6d2d4" stroke-width="1.51"/><path d="M2087,-11L1992,-99L1947,133Z" fill="#ddd6d8" stroke="#ddd6d8" stroke-width="1.51"/><path d="M-464,426L-153,605L-123,417Z" fill="#d7dffb" stroke="#d7dffb" stroke-width="1.51"/><path d="M810,-395L708,-429L680,-144Z" fill="#d6dffb" stroke="#d6dffb" stroke-width="1.51"/><path d="M1682,-422L708,-429L810,-395Z" fill="#dbe0f7" stroke="#dbe0f7" stroke-width="1.51"/><path d="M708,-429L302,-303L680,-144Z" fill="#d3dcfc" stroke="#d3dcfc" stroke-width="1.51"/><path d="M161,-94L-39,-74L152,86Z" fill="#c4d1fb" stroke="#c4d1fb" stroke-width="1.51"/><path d="M-404,1149L-476,1442L-188,1222Z" fill="#dcd6d8" stroke="#dcd6d8" stroke-width="1.51"/><path d="M-347,1605L-392,2023L-161,1721Z" fill="#d3d0d2" stroke="#d3d0d2" stroke-width="1.51"/><path d="M-417,741L-476,1442L-404,1149Z" fill="#ded9df" stroke="#ded9df" stroke-width="1.51"/><path d="M2468,762L2489,410L2227,631Z" fill="#ebe2d0" stroke="#ebe2d0" stroke-width="1.51"/><path d="M2643,427L2489,410L2719,655Z" fill="#e7e0d1" stroke="#e7e0d1" stroke-width="1.51"/><path d="M42,-313L-39,-74L161,-94Z" fill="#c3d0fb" stroke="#c3d0fb" stroke-width="1.51"/><path d="M-100,186L-341,213L-123,417Z" fill="#cfd9fc" stroke="#cfd9fc" stroke-width="1.51"/><path d="M1448,-347L1682,-422L810,-395Z" fill="#dee0f3" stroke="#dee0f3" stroke-width="1.51"/><path d="M1900,-434L1682,-422L1739,-87Z" fill="#ded9df" stroke="#ded9df" stroke-width="1.51"/><path d="M1900,-434L1739,-87L1992,-99Z" fill="#ded7db" stroke="#ded7db" stroke-width="1.51"/><path d="M-304,-60L-341,213L-100,186Z" fill="#c7d3fc" stroke="#c7d3fc" stroke-width="1.51"/><path d="M-417,741L-464,426L-476,1442Z" fill="#dedff0" stroke="#dedff0" stroke-width="1.51"/><path d="M-341,213L-464,426L-123,417Z" fill="#d3dcfc" stroke="#d3dcfc" stroke-width="1.51"/><path d="M2517,1358L2716,1154L2380,1252Z" fill="#e8d7ae" stroke="#e8d7ae" stroke-width="1.51"/><path d="M2657,1711L2687,1371L2517,1358Z" fill="#e1d4ab" stroke="#e1d4ab" stroke-width="1.51"/><path d="M2687,1371L2716,1154L2517,1358Z" fill="#e7d7ae" stroke="#e7d7ae" stroke-width="1.51"/><path d="M2716,1154L2729,1000L2406,911Z" fill="#ebdcbc" stroke="#ebdcbc" stroke-width="1.51"/><path d="M2168,1914L2508,1923L2391,1721Z" fill="#e1d4ab" stroke="#e1d4ab" stroke-width="1.51"/><path d="M2391,1721L2657,1711L2517,1358Z" fill="#ded2a9" stroke="#ded2a9" stroke-width="1.51"/><path d="M1641,2016L2508,1923L2168,1914Z" fill="#e6d6ad" stroke="#e6d6ad" stroke-width="1.51"/><path d="M2719,655L2489,410L2468,762Z" fill="#e9e1cf" stroke="#e9e1cf" stroke-width="1.51"/><path d="M2483,84L2399,-10L2115,147Z" fill="#dad6d5" stroke="#dad6d5" stroke-width="1.51"/><path d="M2087,-11L2191,-343L1992,-99Z" fill="#dbd5d7" stroke="#dbd5d7" stroke-width="1.51"/><path d="M2729,1000L2719,655L2468,762Z" fill="#ece2cb" stroke="#ece2cb" stroke-width="1.51"/><path d="M-37,-409L42,-313L302,-303Z" fill="#c5d1fb" stroke="#c5d1fb" stroke-width="1.51"/><path d="M302,-303L42,-313L161,-94Z" fill="#c7d3fc" stroke="#c7d3fc" stroke-width="1.51"/><path d="M-39,-74L-304,-60L-100,186Z" fill="#c2cffb" stroke="#c2cffb" stroke-width="1.51"/><path d="M2508,1923L2657,1711L2391,1721Z" fill="#ded2a9" stroke="#ded2a9" stroke-width="1.51"/><path d="M2687,1371L2865,1093L2716,1154Z" fill="#e9d8af" stroke="#e9d8af" stroke-width="1.51"/><path d="M2483,84L2115,147L2489,410Z" fill="#e0dad4" stroke="#e0dad4" stroke-width="1.51"/><path d="M2191,-343L1900,-434L1992,-99Z" fill="#dcd6d8" stroke="#dcd6d8" stroke-width="1.51"/><path d="M1682,-422L1900,-434L708,-429Z" fill="#dedeee" stroke="#dedeee" stroke-width="1.51"/><path d="M-476,1442L-392,2023L-347,1605Z" fill="#d3d0d2" stroke="#d3d0d2" stroke-width="1.51"/><path d="M-97,1921L-392,2023L385,2035Z" fill="#d3d0d2" stroke="#d3d0d2" stroke-width="1.51"/><path d="M2630,128L2483,84L2489,410Z" fill="#ddd9d3" stroke="#ddd9d3" stroke-width="1.51"/><path d="M-358,-322L-304,-60L-39,-74Z" fill="#c1cffb" stroke="#c1cffb" stroke-width="1.51"/><path d="M-341,213L-304,-60L-464,426Z" fill="#cbd6fc" stroke="#cbd6fc" stroke-width="1.51"/><path d="M2508,1923L2646,1893L2657,1711Z" fill="#ded2a9" stroke="#ded2a9" stroke-width="1.51"/><path d="M2990,1006L2865,1093L3000,1484Z" fill="#e9d8b0" stroke="#e9d8b0" stroke-width="1.51"/><path d="M2865,1093L2687,1371L3000,1484Z" fill="#e6d6ad" stroke="#e6d6ad" stroke-width="1.51"/><path d="M2716,1154L2865,1093L2729,1000Z" fill="#eadbb7" stroke="#eadbb7" stroke-width="1.51"/><path d="M2729,1000L3024,691L2719,655Z" fill="#ebe2cc" stroke="#ebe2cc" stroke-width="1.51"/><path d="M2411,-416L2191,-343L2399,-10Z" fill="#d7d3d5" stroke="#d7d3d5" stroke-width="1.51"/><path d="M2399,-10L2191,-343L2087,-11Z" fill="#d9d4d6" stroke="#d9d4d6" stroke-width="1.51"/><path d="M2483,84L2780,-188L2399,-10Z" fill="#d3d0d2" stroke="#d3d0d2" stroke-width="1.51"/><path d="M2643,427L2630,128L2489,410Z" fill="#e1ddd3" stroke="#e1ddd3" stroke-width="1.51"/><path d="M2856,198L2630,128L2643,427Z" fill="#dedad2" stroke="#dedad2" stroke-width="1.51"/><path d="M2856,198L2643,427L2965,386Z" fill="#e2ddd3" stroke="#e2ddd3" stroke-width="1.51"/><path d="M42,-313L-37,-409L-39,-74Z" fill="#c1cffb" stroke="#c1cffb" stroke-width="1.51"/><path d="M708,-429L-37,-409L302,-303Z" fill="#ccd7fc" stroke="#ccd7fc" stroke-width="1.51"/><path d="M2865,1093L2990,1006L2729,1000Z" fill="#ebdcbb" stroke="#ebdcbb" stroke-width="1.51"/><path d="M2934,1626L2687,1371L2657,1711Z" fill="#dfd3a9" stroke="#dfd3a9" stroke-width="1.51"/><path d="M2646,1893L2934,1626L2657,1711Z" fill="#ded2a9" stroke="#ded2a9" stroke-width="1.51"/><path d="M2934,1626L3000,1484L2687,1371Z" fill="#e1d3aa" stroke="#e1d3aa" stroke-width="1.51"/><path d="M-37,-409L-358,-322L-39,-74Z" fill="#c1cffb" stroke="#c1cffb" stroke-width="1.51"/><path d="M-304,-60L-358,-322L-464,426Z" fill="#c2cffb" stroke="#c2cffb" stroke-width="1.51"/><path d="M2965,386L2643,427L2719,655Z" fill="#e7e0d1" stroke="#e7e0d1" stroke-width="1.51"/><path d="M2701,-306L2411,-416L2399,-10Z" fill="#d4d1d3" stroke="#d4d1d3" stroke-width="1.51"/><path d="M2990,1006L3024,691L2729,1000Z" fill="#ebdfc4" stroke="#ebdfc4" stroke-width="1.51"/><path d="M3000,1484L3024,691L2990,1006Z" fill="#eadcb9" stroke="#eadcb9" stroke-width="1.51"/><path d="M2780,-188L2483,84L2630,128Z" fill="#d3d1d2" stroke="#d3d1d2" stroke-width="1.51"/><path d="M2191,-343L2411,-416L1900,-434Z" fill="#dad4d6" stroke="#dad4d6" stroke-width="1.51"/><path d="M3024,691L2965,386L2719,655Z" fill="#e8e1cf" stroke="#e8e1cf" stroke-width="1.51"/><path d="M2920,-47L2630,128L2856,198Z" fill="#d7d4d3" stroke="#d7d4d3" stroke-width="1.51"/><path d="M2920,-47L2780,-188L2630,128Z" fill="#d3d0d2" stroke="#d3d0d2" stroke-width="1.51"/><path d="M385,2035L2978,2016L1427,2024Z" fill="#ebddbd" stroke="#ebddbd" stroke-width="1.51"/><path d="M1427,2024L2978,2016L1641,2016Z" fill="#e8d7ae" stroke="#e8d7ae" stroke-width="1.51"/><path d="M1641,2016L2978,2016L2508,1923Z" fill="#e1d4ab" stroke="#e1d4ab" stroke-width="1.51"/><path d="M2508,1923L2978,2016L2646,1893Z" fill="#ded2a9" stroke="#ded2a9" stroke-width="1.51"/><path d="M2646,1893L2978,2016L2934,1626Z" fill="#ded2a9" stroke="#ded2a9" stroke-width="1.51"/><path d="M2934,1626L2978,2016L3000,1484Z" fill="#ded2a9" stroke="#ded2a9" stroke-width="1.51"/><path d="M2780,-188L2701,-306L2399,-10Z" fill="#d3d0d2" stroke="#d3d0d2" stroke-width="1.51"/><path d="M2780,-188L2942,-368L2701,-306Z" fill="#d3d0d2" stroke="#d3d0d2" stroke-width="1.51"/><path d="M2965,386L2920,-47L2856,198Z" fill="#dbd7d2" stroke="#dbd7d2" stroke-width="1.51"/><path d="M2942,-368L2920,-47L2965,386Z" fill="#d3d0d2" stroke="#d3d0d2" stroke-width="1.51"/><path d="M2920,-47L2942,-368L2780,-188Z" fill="#d3d0d2" stroke="#d3d0d2" stroke-width="1.51"/><path d="M2701,-306L2942,-368L2411,-416Z" fill="#d3d0d2" stroke="#d3d0d2" stroke-width="1.51"/><path d="M3024,691L2942,-368L2965,386Z" fill="#ddd9d2" stroke="#ddd9d2" stroke-width="1.51"/></svg>