<svg xmlns="http://www.w3.org/2000/svg" width="2560" height="1600"><path d="M1219,916L1474,911L1248,809Z" fill="#d6e4fd" stroke="#d6e4fd" stroke-width="1.51"/><path d="M1474,911L1418,748L1248,809Z" fill="#d6e5fd" stroke="#d6e5fd" stroke-width="1.51"/><path d="M1474,911L1509,860L1418,748Z" fill="#d3e2fe" stroke="#d3e2fe" stroke-width="1.51"/><path d="M1219,916L1308,1121L1474,911Z" fill="#d0e0fe" stroke="#d0e0fe" stroke-width="1.51"/><path d="M1418,748L1410,655L1248,809Z" fill="#dbe8fc" stroke="#dbe8fc" stroke-width="1.51"/><path d="M1530,672L1410,655L1418,748Z" fill="#dae8fc" stroke="#dae8fc" stroke-width="1.51"/><path d="M1474,911L1613,931L1509,860Z" fill="#cedfff" stroke="#cedfff" stroke-width="1.51"/><path d="M1509,860L1530,672L1418,748Z" fill="#d6e5fd" stroke="#d6e5fd" stroke-width="1.51"/><path d="M1558,1283L1613,931L1474,911Z" fill="#c6d9fe" stroke="#c6d9fe" stroke-width="1.51"/><path d="M1735,814L1530,672L1509,860Z" fill="#d2e1fd" stroke="#d2e1fd" stroke-width="1.51"/><path d="M1219,916L1201,1158L1308,1121Z" fill="#cddffd" stroke="#cddffd" stroke-width="1.51"/><path d="M1219,916L1040,986L1201,1158Z" fill="#d3e3fd" stroke="#d3e3fd" stroke-width="1.51"/><path d="M1248,809L1040,986L1219,916Z" fill="#d9e7fd" stroke="#d9e7fd" stroke-width="1.51"/><path d="M885,734L1040,986L1248,809Z" fill="#dfebfb" stroke="#dfebfb" stroke-width="1.51"/><path d="M1410,655L1217,530L1248,809Z" fill="#e1ecfb" stroke="#e1ecfb" stroke-width="1.51"/><path d="M1432,294L1217,530L1410,655Z" fill="#e4eefd" stroke="#e4eefd" stroke-width="1.51"/><path d="M1613,931L1735,814L1509,860Z" fill="#cddefe" stroke="#cddefe" stroke-width="1.51"/><path d="M1323,1454L1558,1283L1308,1121Z" fill="#bcd4fb" stroke="#bcd4fb" stroke-width="1.51"/><path d="M1308,1121L1558,1283L1474,911Z" fill="#c5dafd" stroke="#c5dafd" stroke-width="1.51"/><path d="M1613,931L1824,1095L1735,814Z" fill="#c5d9fe" stroke="#c5d9fe" stroke-width="1.51"/><path d="M1201,1158L1323,1454L1308,1121Z" fill="#c2d8fb" stroke="#c2d8fb" stroke-width="1.51"/><path d="M1040,986L1070,1263L1201,1158Z" fill="#cde0fb" stroke="#cde0fb" stroke-width="1.51"/><path d="M943,552L885,734L1248,809Z" fill="#e7f1fa" stroke="#e7f1fa" stroke-width="1.51"/><path d="M1040,986L765,1226L1070,1263Z" fill="#d0e1fb" stroke="#d0e1fb" stroke-width="1.51"/><path d="M1558,1283L1732,1220L1613,931Z" fill="#bcd4fd" stroke="#bcd4fd" stroke-width="1.51"/><path d="M1732,1220L1824,1095L1613,931Z" fill="#bdd4fd" stroke="#bdd4fd" stroke-width="1.51"/><path d="M1530,672L1567,415L1410,655Z" fill="#dde9fd" stroke="#dde9fd" stroke-width="1.51"/><path d="M1836,521L1567,415L1530,672Z" fill="#d9e7fd" stroke="#d9e7fd" stroke-width="1.51"/><path d="M1217,530L943,552L1248,809Z" fill="#e7f0fa" stroke="#e7f0fa" stroke-width="1.51"/><path d="M1105,414L943,552L1217,530Z" fill="#ebf3fb" stroke="#ebf3fb" stroke-width="1.51"/><path d="M1558,1283L1609,1357L1732,1220Z" fill="#b3cffc" stroke="#b3cffc" stroke-width="1.51"/><path d="M1323,1454L1609,1357L1558,1283Z" fill="#b6d1fc" stroke="#b6d1fc" stroke-width="1.51"/><path d="M1224,215L1105,414L1217,530Z" fill="#ecf3fd" stroke="#ecf3fd" stroke-width="1.51"/><path d="M1735,814L1836,521L1530,672Z" fill="#d2e3fc" stroke="#d2e3fc" stroke-width="1.51"/><path d="M1824,1095L1895,857L1735,814Z" fill="#c2d8fd" stroke="#c2d8fd" stroke-width="1.51"/><path d="M1119,1425L1323,1454L1201,1158Z" fill="#bfd7fa" stroke="#bfd7fa" stroke-width="1.51"/><path d="M1070,1263L1119,1425L1201,1158Z" fill="#c4dafa" stroke="#c4dafa" stroke-width="1.51"/><path d="M1032,1509L1119,1425L858,1421Z" fill="#c2d9f8" stroke="#c2d9f8" stroke-width="1.51"/><path d="M885,734L758,805L1040,986Z" fill="#e2edfc" stroke="#e2edfc" stroke-width="1.51"/><path d="M639,604L758,805L885,734Z" fill="#ebf3fb" stroke="#ebf3fb" stroke-width="1.51"/><path d="M1895,857L1901,669L1735,814Z" fill="#c8dcfc" stroke="#c8dcfc" stroke-width="1.51"/><path d="M1567,415L1432,294L1410,655Z" fill="#e2ecfd" stroke="#e2ecfd" stroke-width="1.51"/><path d="M1498,262L1432,294L1567,415Z" fill="#e5eeff" stroke="#e5eeff" stroke-width="1.51"/><path d="M639,604L625,800L758,805Z" fill="#ebf3fc" stroke="#ebf3fc" stroke-width="1.51"/><path d="M1105,414L948,434L943,552Z" fill="#eff5fa" stroke="#eff5fa" stroke-width="1.51"/><path d="M1064,155L948,434L1105,414Z" fill="#f2f7fc" stroke="#f2f7fc" stroke-width="1.51"/><path d="M1901,669L1836,521L1735,814Z" fill="#cee0fb" stroke="#cee0fb" stroke-width="1.51"/><path d="M1824,1095L1975,985L1895,857Z" fill="#bcd4fd" stroke="#bcd4fd" stroke-width="1.51"/><path d="M1895,857L2100,789L1901,669Z" fill="#c4dafb" stroke="#c4dafb" stroke-width="1.51"/><path d="M1959,1108L1975,985L1824,1095Z" fill="#b6d1fc" stroke="#b6d1fc" stroke-width="1.51"/><path d="M1959,1108L1824,1095L1921,1371Z" fill="#afccfb" stroke="#afccfb" stroke-width="1.51"/><path d="M1738,320L1498,262L1567,415Z" fill="#e1ebff" stroke="#e1ebff" stroke-width="1.51"/><path d="M1432,294L1224,215L1217,530Z" fill="#eaf1fe" stroke="#eaf1fe" stroke-width="1.51"/><path d="M1921,1371L1824,1095L1732,1220Z" fill="#b0cdfb" stroke="#b0cdfb" stroke-width="1.51"/><path d="M758,805L687,998L1040,986Z" fill="#dfebfd" stroke="#dfebfd" stroke-width="1.51"/><path d="M687,998L765,1226L1040,986Z" fill="#d8e6fc" stroke="#d8e6fc" stroke-width="1.51"/><path d="M1609,1357L1747,1454L1732,1220Z" fill="#afcdfb" stroke="#afcdfb" stroke-width="1.51"/><path d="M1323,1454L1595,1533L1609,1357Z" fill="#b2cffb" stroke="#b2cffb" stroke-width="1.51"/><path d="M1442,1662L1595,1533L1323,1454Z" fill="#b0cffa" stroke="#b0cffa" stroke-width="1.51"/><path d="M1363,148L1224,215L1432,294Z" fill="#e4ecfb" stroke="#e4ecfb" stroke-width="1.51"/><path d="M1595,1533L1747,1454L1609,1357Z" fill="#adccfb" stroke="#adccfb" stroke-width="1.51"/><path d="M1119,1425L1243,1630L1323,1454Z" fill="#b9d4f9" stroke="#b9d4f9" stroke-width="1.51"/><path d="M858,1421L1119,1425L1070,1263Z" fill="#c4dbf9" stroke="#c4dbf9" stroke-width="1.51"/><path d="M1836,521L1738,320L1567,415Z" fill="#dae7fd" stroke="#dae7fd" stroke-width="1.51"/><path d="M765,1226L858,1421L1070,1263Z" fill="#c9ddfa" stroke="#c9ddfa" stroke-width="1.51"/><path d="M758,805L625,800L687,998Z" fill="#e5eefd" stroke="#e5eefd" stroke-width="1.51"/><path d="M639,604L885,734L943,552Z" fill="#edf5fa" stroke="#edf5fa" stroke-width="1.51"/><path d="M1836,521L1941,457L1738,320Z" fill="#d5e4fc" stroke="#d5e4fc" stroke-width="1.51"/><path d="M1901,669L1941,457L1836,521Z" fill="#cfe1fb" stroke="#cfe1fb" stroke-width="1.51"/><path d="M2222,571L1941,457L1901,669Z" fill="#cadefa" stroke="#cadefa" stroke-width="1.51"/><path d="M1738,320L1775,287L1498,262Z" fill="#dde8fd" stroke="#dde8fd" stroke-width="1.51"/><path d="M1498,262L1363,148L1432,294Z" fill="#e2ebfc" stroke="#e2ebfc" stroke-width="1.51"/><path d="M1941,457L1775,287L1738,320Z" fill="#d8e6fd" stroke="#d8e6fd" stroke-width="1.51"/><path d="M1071,1617L1243,1630L1119,1425Z" fill="#bad5f8" stroke="#bad5f8" stroke-width="1.51"/><path d="M1071,1617L1119,1425L1032,1509Z" fill="#bed7f8" stroke="#bed7f8" stroke-width="1.51"/><path d="M1490,-18L1363,148L1498,262Z" fill="#dbe7f9" stroke="#dbe7f9" stroke-width="1.51"/><path d="M1957,1657L1921,1371L1747,1454Z" fill="#a2c6f9" stroke="#a2c6f9" stroke-width="1.51"/><path d="M1747,1454L1921,1371L1732,1220Z" fill="#abcafa" stroke="#abcafa" stroke-width="1.51"/><path d="M1975,985L2100,789L1895,857Z" fill="#bed6fc" stroke="#bed6fc" stroke-width="1.51"/><path d="M2180,977L2100,789L1975,985Z" fill="#b9d2fc" stroke="#b9d2fc" stroke-width="1.51"/><path d="M2116,1154L1975,985L1959,1108Z" fill="#b1cdfb" stroke="#b1cdfb" stroke-width="1.51"/><path d="M667,512L639,604L943,552Z" fill="#f1f7fc" stroke="#f1f7fc" stroke-width="1.51"/><path d="M667,512L943,552L948,434Z" fill="#f0f6fb" stroke="#f0f6fb" stroke-width="1.51"/><path d="M1595,1533L1736,1560L1747,1454Z" fill="#a9cafa" stroke="#a9cafa" stroke-width="1.51"/><path d="M1562,1758L1736,1560L1595,1533Z" fill="#a8cafa" stroke="#a8cafa" stroke-width="1.51"/><path d="M805,1598L1071,1617L1032,1509Z" fill="#bed8f8" stroke="#bed8f8" stroke-width="1.51"/><path d="M1243,1630L1442,1662L1323,1454Z" fill="#b3d1f9" stroke="#b3d1f9" stroke-width="1.51"/><path d="M1378,1910L1442,1662L1243,1630Z" fill="#b2d0f9" stroke="#b2d0f9" stroke-width="1.51"/><path d="M776,298L667,512L948,434Z" fill="#f4f8fd" stroke="#f4f8fd" stroke-width="1.51"/><path d="M687,998L540,1192L765,1226Z" fill="#d6e5fd" stroke="#d6e5fd" stroke-width="1.51"/><path d="M765,1226L491,1348L858,1421Z" fill="#ccdefb" stroke="#ccdefb" stroke-width="1.51"/><path d="M625,800L566,955L687,998Z" fill="#e4edfe" stroke="#e4edfe" stroke-width="1.51"/><path d="M341,823L566,955L625,800Z" fill="#e9f0fe" stroke="#e9f0fe" stroke-width="1.51"/><path d="M1224,215L1064,155L1105,414Z" fill="#ecf3fb" stroke="#ecf3fb" stroke-width="1.51"/><path d="M1080,16L1064,155L1224,215Z" fill="#e5eef6" stroke="#e5eef6" stroke-width="1.51"/><path d="M1921,1371L2116,1154L1959,1108Z" fill="#aac9fa" stroke="#aac9fa" stroke-width="1.51"/><path d="M1064,155L776,298L948,434Z" fill="#f3f8fc" stroke="#f3f8fc" stroke-width="1.51"/><path d="M2116,1154L2180,977L1975,985Z" fill="#b1cefc" stroke="#b1cefc" stroke-width="1.51"/><path d="M566,955L540,1192L687,998Z" fill="#dde9fe" stroke="#dde9fe" stroke-width="1.51"/><path d="M805,1598L1074,1729L1071,1617Z" fill="#bdd7f7" stroke="#bdd7f7" stroke-width="1.51"/><path d="M1071,1617L1074,1729L1243,1630Z" fill="#b9d4f8" stroke="#b9d4f8" stroke-width="1.51"/><path d="M805,1598L1032,1509L858,1421Z" fill="#c2d9f8" stroke="#c2d9f8" stroke-width="1.51"/><path d="M776,298L705,282L667,512Z" fill="#f7fafe" stroke="#f7fafe" stroke-width="1.51"/><path d="M667,512L516,451L639,604Z" fill="#f4f9fc" stroke="#f4f9fc" stroke-width="1.51"/><path d="M639,604L341,823L625,800Z" fill="#eef4fd" stroke="#eef4fd" stroke-width="1.51"/><path d="M825,-81L705,282L776,298Z" fill="#eef4f8" stroke="#eef4f8" stroke-width="1.51"/><path d="M526,1538L805,1598L858,1421Z" fill="#c5dbf9" stroke="#c5dbf9" stroke-width="1.51"/><path d="M1957,1657L2106,1416L1921,1371Z" fill="#9ec3f8" stroke="#9ec3f8" stroke-width="1.51"/><path d="M1442,1662L1562,1758L1595,1533Z" fill="#acccfa" stroke="#acccfa" stroke-width="1.51"/><path d="M1378,1910L1562,1758L1442,1662Z" fill="#afcdfa" stroke="#afcdfa" stroke-width="1.51"/><path d="M1064,155L825,-81L776,298Z" fill="#e9f1f6" stroke="#e9f1f6" stroke-width="1.51"/><path d="M1316,-33L1080,16L1224,215Z" fill="#dfe9f4" stroke="#dfe9f4" stroke-width="1.51"/><path d="M1316,-33L1224,215L1363,148Z" fill="#dfe9f7" stroke="#dfe9f7" stroke-width="1.51"/><path d="M1941,457L1941,190L1775,287Z" fill="#d7e4fd" stroke="#d7e4fd" stroke-width="1.51"/><path d="M1793,46L1490,-18L1498,262Z" fill="#d5e2f7" stroke="#d5e2f7" stroke-width="1.51"/><path d="M2121,342L1941,190L1941,457Z" fill="#d2e2fd" stroke="#d2e2fd" stroke-width="1.51"/><path d="M2222,571L1901,669L2100,789Z" fill="#c5dafa" stroke="#c5dafa" stroke-width="1.51"/><path d="M1793,46L1498,262L1775,287Z" fill="#d7e4fa" stroke="#d7e4fa" stroke-width="1.51"/><path d="M1921,1371L2106,1416L2116,1154Z" fill="#a2c5f9" stroke="#a2c5f9" stroke-width="1.51"/><path d="M2116,1154L2385,1212L2180,977Z" fill="#a9cafa" stroke="#a9cafa" stroke-width="1.51"/><path d="M1957,1657L1747,1454L1736,1560Z" fill="#a2c6f9" stroke="#a2c6f9" stroke-width="1.51"/><path d="M1490,-18L1316,-33L1363,148Z" fill="#d8e4f5" stroke="#d8e4f5" stroke-width="1.51"/><path d="M2309,731L2222,571L2100,789Z" fill="#c1d8f9" stroke="#c1d8f9" stroke-width="1.51"/><path d="M705,282L516,451L667,512Z" fill="#f7fafd" stroke="#f7fafd" stroke-width="1.51"/><path d="M396,1326L491,1348L540,1192Z" fill="#cfe0fc" stroke="#cfe0fc" stroke-width="1.51"/><path d="M2222,571L2121,342L1941,457Z" fill="#ccdffb" stroke="#ccdffb" stroke-width="1.51"/><path d="M2000,-57L1793,46L1941,190Z" fill="#c7d9f5" stroke="#c7d9f5" stroke-width="1.51"/><path d="M1941,190L1793,46L1775,287Z" fill="#d0e0f9" stroke="#d0e0f9" stroke-width="1.51"/><path d="M348,1044L540,1192L566,955Z" fill="#dde8fe" stroke="#dde8fe" stroke-width="1.51"/><path d="M540,1192L491,1348L765,1226Z" fill="#d1e1fc" stroke="#d1e1fc" stroke-width="1.51"/><path d="M2461,193L2110,185L2121,342Z" fill="#c9dcf9" stroke="#c9dcf9" stroke-width="1.51"/><path d="M2180,977L2309,731L2100,789Z" fill="#bad4fb" stroke="#bad4fb" stroke-width="1.51"/><path d="M2477,974L2309,731L2180,977Z" fill="#b4d0fb" stroke="#b4d0fb" stroke-width="1.51"/><path d="M1936,1729L1957,1657L1736,1560Z" fill="#9ec4f8" stroke="#9ec4f8" stroke-width="1.51"/><path d="M516,451L341,823L639,604Z" fill="#f3f7fc" stroke="#f3f7fc" stroke-width="1.51"/><path d="M341,823L348,1044L566,955Z" fill="#e1ebfd" stroke="#e1ebfd" stroke-width="1.51"/><path d="M1198,1904L1378,1910L1243,1630Z" fill="#b5d1f9" stroke="#b5d1f9" stroke-width="1.51"/><path d="M1799,1853L1936,1729L1736,1560Z" fill="#a0c5f9" stroke="#a0c5f9" stroke-width="1.51"/><path d="M1198,1904L1243,1630L1074,1729Z" fill="#b8d4f8" stroke="#b8d4f8" stroke-width="1.51"/><path d="M1097,1930L1198,1904L1074,1729Z" fill="#b9d5f8" stroke="#b9d5f8" stroke-width="1.51"/><path d="M1799,1853L1736,1560L1562,1758Z" fill="#a5c8f9" stroke="#a5c8f9" stroke-width="1.51"/><path d="M1957,1657L2191,1650L2106,1416Z" fill="#97c0f7" stroke="#97c0f7" stroke-width="1.51"/><path d="M1080,16L825,-81L1064,155Z" fill="#e2ecf2" stroke="#e2ecf2" stroke-width="1.51"/><path d="M705,282L526,130L516,451Z" fill="#f9fbfd" stroke="#f9fbfd" stroke-width="1.51"/><path d="M1234,-231L1020,-77L1080,16Z" fill="#dde8f2" stroke="#dde8f2" stroke-width="1.51"/><path d="M1234,-231L1080,16L1316,-33Z" fill="#dbe6f2" stroke="#dbe6f2" stroke-width="1.51"/><path d="M2121,342L2110,185L1941,190Z" fill="#cddefa" stroke="#cddefa" stroke-width="1.51"/><path d="M2478,309L2121,342L2222,571Z" fill="#caddfa" stroke="#caddfa" stroke-width="1.51"/><path d="M762,1837L1097,1930L1074,1729Z" fill="#bdd7f8" stroke="#bdd7f8" stroke-width="1.51"/><path d="M491,1348L526,1538L858,1421Z" fill="#cadefb" stroke="#cadefb" stroke-width="1.51"/><path d="M351,1569L526,1538L491,1348Z" fill="#c8dcfa" stroke="#c8dcfa" stroke-width="1.51"/><path d="M280,1220L396,1326L540,1192Z" fill="#cfdffb" stroke="#cfdffb" stroke-width="1.51"/><path d="M1699,1998L1799,1853L1562,1758Z" fill="#a6c8f9" stroke="#a6c8f9" stroke-width="1.51"/><path d="M762,1837L1074,1729L805,1598Z" fill="#bfd8f8" stroke="#bfd8f8" stroke-width="1.51"/><path d="M1198,1904L1461,1961L1378,1910Z" fill="#b2d0f9" stroke="#b2d0f9" stroke-width="1.51"/><path d="M1378,1910L1461,1961L1562,1758Z" fill="#aecdfa" stroke="#aecdfa" stroke-width="1.51"/><path d="M1097,1930L1461,1961L1198,1904Z" fill="#b5d2f9" stroke="#b5d2f9" stroke-width="1.51"/><path d="M2498,1405L2385,1212L2106,1416Z" fill="#9ac2f8" stroke="#9ac2f8" stroke-width="1.51"/><path d="M2106,1416L2385,1212L2116,1154Z" fill="#a1c5f9" stroke="#a1c5f9" stroke-width="1.51"/><path d="M1020,-77L825,-81L1080,16Z" fill="#e1ebf2" stroke="#e1ebf2" stroke-width="1.51"/><path d="M606,1736L762,1837L805,1598Z" fill="#c2d9f9" stroke="#c2d9f9" stroke-width="1.51"/><path d="M1793,46L1724,-153L1490,-18Z" fill="#ccdcf4" stroke="#ccdcf4" stroke-width="1.51"/><path d="M1392,-324L1234,-231L1316,-33Z" fill="#d8e4f3" stroke="#d8e4f3" stroke-width="1.51"/><path d="M1020,-77L890,-208L825,-81Z" fill="#e2ebf2" stroke="#e2ebf2" stroke-width="1.51"/><path d="M2000,-57L1724,-153L1793,46Z" fill="#c6d8f3" stroke="#c6d8f3" stroke-width="1.51"/><path d="M348,1044L280,1220L540,1192Z" fill="#d4e2fb" stroke="#d4e2fb" stroke-width="1.51"/><path d="M396,1326L351,1569L491,1348Z" fill="#c9dcf9" stroke="#c9dcf9" stroke-width="1.51"/><path d="M235,1060L280,1220L348,1044Z" fill="#d3e1f9" stroke="#d3e1f9" stroke-width="1.51"/><path d="M516,451L285,494L341,823Z" fill="#eff6fa" stroke="#eff6fa" stroke-width="1.51"/><path d="M825,-81L526,130L705,282Z" fill="#edf2f7" stroke="#edf2f7" stroke-width="1.51"/><path d="M1724,-153L1674,-179L1490,-18Z" fill="#ceddf4" stroke="#ceddf4" stroke-width="1.51"/><path d="M526,1538L606,1736L805,1598Z" fill="#c4daf9" stroke="#c4daf9" stroke-width="1.51"/><path d="M351,1569L606,1736L526,1538Z" fill="#c6dbfa" stroke="#c6dbfa" stroke-width="1.51"/><path d="M111,830L235,1060L341,823Z" fill="#dce7f9" stroke="#dce7f9" stroke-width="1.51"/><path d="M341,823L235,1060L348,1044Z" fill="#dbe7fb" stroke="#dbe7fb" stroke-width="1.51"/><path d="M1392,-324L1316,-33L1490,-18Z" fill="#d5e2f3" stroke="#d5e2f3" stroke-width="1.51"/><path d="M313,347L285,494L516,451Z" fill="#f3f8fb" stroke="#f3f8fb" stroke-width="1.51"/><path d="M2385,1212L2477,974L2180,977Z" fill="#abcbfa" stroke="#abcbfa" stroke-width="1.51"/><path d="M2309,731L2449,552L2222,571Z" fill="#c2daf8" stroke="#c2daf8" stroke-width="1.51"/><path d="M2205,1763L2191,1650L1957,1657Z" fill="#95bff7" stroke="#95bff7" stroke-width="1.51"/><path d="M2205,1763L1957,1657L1936,1729Z" fill="#97c1f7" stroke="#97c1f7" stroke-width="1.51"/><path d="M2220,-32L2000,-57L2110,185Z" fill="#bfd5f3" stroke="#bfd5f3" stroke-width="1.51"/><path d="M2110,185L2000,-57L1941,190Z" fill="#c6d9f5" stroke="#c6d9f5" stroke-width="1.51"/><path d="M1724,-153L2076,-164L1674,-179Z" fill="#c7d9f3" stroke="#c7d9f3" stroke-width="1.51"/><path d="M2061,2064L2205,1763L1936,1729Z" fill="#96c0f7" stroke="#96c0f7" stroke-width="1.51"/><path d="M1461,1961L1571,2025L1562,1758Z" fill="#acccfa" stroke="#acccfa" stroke-width="1.51"/><path d="M910,2072L1571,2025L1461,1961Z" fill="#b3d0f9" stroke="#b3d0f9" stroke-width="1.51"/><path d="M2538,763L2449,552L2309,731Z" fill="#bdd7f8" stroke="#bdd7f8" stroke-width="1.51"/><path d="M526,130L448,159L516,451Z" fill="#f7f9fc" stroke="#f7f9fc" stroke-width="1.51"/><path d="M473,-57L448,159L526,130Z" fill="#edf1f6" stroke="#edf1f6" stroke-width="1.51"/><path d="M1571,2025L1699,1998L1562,1758Z" fill="#a9cafa" stroke="#a9cafa" stroke-width="1.51"/><path d="M448,159L313,347L516,451Z" fill="#f9fafd" stroke="#f9fafd" stroke-width="1.51"/><path d="M825,-81L473,-57L526,130Z" fill="#e7eef4" stroke="#e7eef4" stroke-width="1.51"/><path d="M1234,-231L890,-208L1020,-77Z" fill="#dfeaf1" stroke="#dfeaf1" stroke-width="1.51"/><path d="M2477,974L2538,763L2309,731Z" fill="#b6d2f9" stroke="#b6d2f9" stroke-width="1.51"/><path d="M218,1375L396,1326L280,1220Z" fill="#c8dbf8" stroke="#c8dbf8" stroke-width="1.51"/><path d="M246,1532L351,1569L396,1326Z" fill="#c4d9f8" stroke="#c4d9f8" stroke-width="1.51"/><path d="M1234,-231L855,-234L890,-208Z" fill="#e0ebf1" stroke="#e0ebf1" stroke-width="1.51"/><path d="M1674,-179L1392,-324L1490,-18Z" fill="#d2e0f5" stroke="#d2e0f5" stroke-width="1.51"/><path d="M2333,-296L1392,-324L1674,-179Z" fill="#c8d9f3" stroke="#c8d9f3" stroke-width="1.51"/><path d="M2477,974L2566,904L2538,763Z" fill="#b1cffa" stroke="#b1cffa" stroke-width="1.51"/><path d="M2814,1020L2566,904L2477,974Z" fill="#abccfa" stroke="#abccfa" stroke-width="1.51"/><path d="M2578,1264L2477,974L2385,1212Z" fill="#a2c6f9" stroke="#a2c6f9" stroke-width="1.51"/><path d="M2191,1650L2498,1405L2106,1416Z" fill="#96c0f7" stroke="#96c0f7" stroke-width="1.51"/><path d="M2061,2064L1936,1729L1799,1853Z" fill="#9bc3f8" stroke="#9bc3f8" stroke-width="1.51"/><path d="M1097,1930L910,2072L1461,1961Z" fill="#b8d4f8" stroke="#b8d4f8" stroke-width="1.51"/><path d="M762,1837L817,1999L1097,1930Z" fill="#bfd8f8" stroke="#bfd8f8" stroke-width="1.51"/><path d="M520,1999L817,1999L762,1837Z" fill="#c3d9f9" stroke="#c3d9f9" stroke-width="1.51"/><path d="M520,1999L762,1837L606,1736Z" fill="#c4dafa" stroke="#c4dafa" stroke-width="1.51"/><path d="M170,1244L218,1375L280,1220Z" fill="#c7daf6" stroke="#c7daf6" stroke-width="1.51"/><path d="M235,1060L170,1244L280,1220Z" fill="#cddef7" stroke="#cddef7" stroke-width="1.51"/><path d="M11,929L170,1244L235,1060Z" fill="#d0def7" stroke="#d0def7" stroke-width="1.51"/><path d="M890,-208L855,-234L825,-81Z" fill="#e3ecf2" stroke="#e3ecf2" stroke-width="1.51"/><path d="M1392,-324L855,-234L1234,-231Z" fill="#dce7f2" stroke="#dce7f2" stroke-width="1.51"/><path d="M99,613L111,830L341,823Z" fill="#e1ebf6" stroke="#e1ebf6" stroke-width="1.51"/><path d="M99,613L341,823L285,494Z" fill="#e9f1f6" stroke="#e9f1f6" stroke-width="1.51"/><path d="M817,1999L910,2072L1097,1930Z" fill="#bed8f8" stroke="#bed8f8" stroke-width="1.51"/><path d="M2517,1525L2498,1405L2191,1650Z" fill="#91bef6" stroke="#91bef6" stroke-width="1.51"/><path d="M218,1375L246,1532L396,1326Z" fill="#c5d9f7" stroke="#c5d9f7" stroke-width="1.51"/><path d="M312,1900L520,1999L606,1736Z" fill="#c5dafa" stroke="#c5dafa" stroke-width="1.51"/><path d="M22,1531L246,1532L218,1375Z" fill="#bed4f4" stroke="#bed4f4" stroke-width="1.51"/><path d="M2478,309L2222,571L2449,552Z" fill="#c5dbf9" stroke="#c5dbf9" stroke-width="1.51"/><path d="M2427,76L2220,-32L2110,185Z" fill="#bed5f3" stroke="#bed5f3" stroke-width="1.51"/><path d="M2000,-57L2076,-164L1724,-153Z" fill="#c3d6f2" stroke="#c3d6f2" stroke-width="1.51"/><path d="M2606,622L2449,552L2538,763Z" fill="#bcd7f7" stroke="#bcd7f7" stroke-width="1.51"/><path d="M2533,335L2478,309L2449,552Z" fill="#c5dbfa" stroke="#c5dbfa" stroke-width="1.51"/><path d="M105,450L285,494L313,347Z" fill="#eef4f8" stroke="#eef4f8" stroke-width="1.51"/><path d="M105,450L99,613L285,494Z" fill="#e9f1f6" stroke="#e9f1f6" stroke-width="1.51"/><path d="M2205,1763L2335,1703L2191,1650Z" fill="#92bef6" stroke="#92bef6" stroke-width="1.51"/><path d="M2378,1943L2335,1703L2205,1763Z" fill="#91bdf6" stroke="#91bdf6" stroke-width="1.51"/><path d="M2220,-32L2076,-164L2000,-57Z" fill="#bdd3f2" stroke="#bdd3f2" stroke-width="1.51"/><path d="M2551,1464L2578,1264L2498,1405Z" fill="#94bff7" stroke="#94bff7" stroke-width="1.51"/><path d="M2498,1405L2578,1264L2385,1212Z" fill="#98c1f8" stroke="#98c1f8" stroke-width="1.51"/><path d="M2738,738L2538,763L2566,904Z" fill="#b4d1f9" stroke="#b4d1f9" stroke-width="1.51"/><path d="M2738,738L2606,622L2538,763Z" fill="#b9d4f8" stroke="#b9d4f8" stroke-width="1.51"/><path d="M177,-7L70,267L313,347Z" fill="#e9eff4" stroke="#e9eff4" stroke-width="1.51"/><path d="M505,-159L473,-57L825,-81Z" fill="#e8eef4" stroke="#e8eef4" stroke-width="1.51"/><path d="M2606,622L2533,335L2449,552Z" fill="#c1d9f9" stroke="#c1d9f9" stroke-width="1.51"/><path d="M2478,309L2461,193L2121,342Z" fill="#c9dcfa" stroke="#c9dcfa" stroke-width="1.51"/><path d="M2533,335L2461,193L2478,309Z" fill="#c5daf9" stroke="#c5daf9" stroke-width="1.51"/><path d="M70,267L105,450L313,347Z" fill="#eef3f7" stroke="#eef3f7" stroke-width="1.51"/><path d="M2335,1703L2517,1525L2191,1650Z" fill="#90bdf6" stroke="#90bdf6" stroke-width="1.51"/><path d="M2517,1525L2551,1464L2498,1405Z" fill="#91bef6" stroke="#91bef6" stroke-width="1.51"/><path d="M170,1244L22,1531L218,1375Z" fill="#c0d5f4" stroke="#c0d5f4" stroke-width="1.51"/><path d="M111,830L11,929L235,1060Z" fill="#d7e3f7" stroke="#d7e3f7" stroke-width="1.51"/><path d="M-111,825L11,929L111,830Z" fill="#d6e3f3" stroke="#d6e3f3" stroke-width="1.51"/><path d="M-51,658L111,830L99,613Z" fill="#dfeaf3" stroke="#dfeaf3" stroke-width="1.51"/><path d="M177,-7L313,347L448,159Z" fill="#ecf1f6" stroke="#ecf1f6" stroke-width="1.51"/><path d="M855,-234L505,-159L825,-81Z" fill="#e5edf3" stroke="#e5edf3" stroke-width="1.51"/><path d="M2333,-296L2162,-182L2220,-32Z" fill="#bad2f1" stroke="#bad2f1" stroke-width="1.51"/><path d="M2220,-32L2162,-182L2076,-164Z" fill="#bcd3f1" stroke="#bcd3f1" stroke-width="1.51"/><path d="M2076,-164L2333,-296L1674,-179Z" fill="#bfd4f2" stroke="#bfd4f2" stroke-width="1.51"/><path d="M2461,193L2427,76L2110,185Z" fill="#c1d7f6" stroke="#c1d7f6" stroke-width="1.51"/><path d="M2674,118L2427,76L2461,193Z" fill="#bcd4f4" stroke="#bcd4f4" stroke-width="1.51"/><path d="M1699,1998L2061,2064L1799,1853Z" fill="#9fc5f8" stroke="#9fc5f8" stroke-width="1.51"/><path d="M2335,1703L2495,1813L2517,1525Z" fill="#8dbcf6" stroke="#8dbcf6" stroke-width="1.51"/><path d="M1571,2025L2061,2064L1699,1998Z" fill="#a2c6f9" stroke="#a2c6f9" stroke-width="1.51"/><path d="M910,2072L2061,2064L1571,2025Z" fill="#acccfa" stroke="#acccfa" stroke-width="1.51"/><path d="M312,1900L606,1736L351,1569Z" fill="#c3d9f8" stroke="#c3d9f8" stroke-width="1.51"/><path d="M817,1999L520,1999L910,2072Z" fill="#c1d9f9" stroke="#c1d9f9" stroke-width="1.51"/><path d="M2785,268L2674,118L2533,335Z" fill="#c2d8f8" stroke="#c2d8f8" stroke-width="1.51"/><path d="M2533,335L2674,118L2461,193Z" fill="#c0d7f7" stroke="#c0d7f7" stroke-width="1.51"/><path d="M2814,1020L2738,738L2566,904Z" fill="#b0cefa" stroke="#b0cefa" stroke-width="1.51"/><path d="M2814,1020L2477,974L2578,1264Z" fill="#a4c7f9" stroke="#a4c7f9" stroke-width="1.51"/><path d="M2061,2064L2256,1964L2205,1763Z" fill="#94bff7" stroke="#94bff7" stroke-width="1.51"/><path d="M-66,453L-51,658L99,613Z" fill="#e2ebf2" stroke="#e2ebf2" stroke-width="1.51"/><path d="M-66,453L99,613L105,450Z" fill="#e5edf4" stroke="#e5edf4" stroke-width="1.51"/><path d="M277,-116L448,159L473,-57Z" fill="#e5ecf2" stroke="#e5ecf2" stroke-width="1.51"/><path d="M108,1728L312,1900L351,1569Z" fill="#bdd5f5" stroke="#bdd5f5" stroke-width="1.51"/><path d="M108,1728L351,1569L246,1532Z" fill="#bcd4f5" stroke="#bcd4f5" stroke-width="1.51"/><path d="M-51,658L-111,825L111,830Z" fill="#dae6f3" stroke="#dae6f3" stroke-width="1.51"/><path d="M-59,1502L22,1531L170,1244Z" fill="#bbd2f2" stroke="#bbd2f2" stroke-width="1.51"/><path d="M-219,562L-111,825L-51,658Z" fill="#dee9f2" stroke="#dee9f2" stroke-width="1.51"/><path d="M-146,1271L170,1244L11,929Z" fill="#c7d9f3" stroke="#c7d9f3" stroke-width="1.51"/><path d="M349,-245L473,-57L505,-159Z" fill="#e7edf3" stroke="#e7edf3" stroke-width="1.51"/><path d="M349,-245L277,-116L473,-57Z" fill="#e4ebf1" stroke="#e4ebf1" stroke-width="1.51"/><path d="M2378,1943L2495,1813L2335,1703Z" fill="#8ebcf6" stroke="#8ebcf6" stroke-width="1.51"/><path d="M2874,1565L2828,1340L2551,1464Z" fill="#90bdf6" stroke="#90bdf6" stroke-width="1.51"/><path d="M2766,1288L2814,1020L2578,1264Z" fill="#9dc3f8" stroke="#9dc3f8" stroke-width="1.51"/><path d="M2256,1964L2378,1943L2205,1763Z" fill="#91bef6" stroke="#91bef6" stroke-width="1.51"/><path d="M2061,2064L2378,1943L2256,1964Z" fill="#92bef7" stroke="#92bef7" stroke-width="1.51"/><path d="M2766,1288L2578,1264L2551,1464Z" fill="#95bff7" stroke="#95bff7" stroke-width="1.51"/><path d="M2828,1340L2766,1288L2551,1464Z" fill="#94bff7" stroke="#94bff7" stroke-width="1.51"/><path d="M277,-116L177,-7L448,159Z" fill="#e2eaf0" stroke="#e2eaf0" stroke-width="1.51"/><path d="M-77,208L-66,453L70,267Z" fill="#e9eff4" stroke="#e9eff4" stroke-width="1.51"/><path d="M70,267L-66,453L105,450Z" fill="#e9eff4" stroke="#e9eff4" stroke-width="1.51"/><path d="M22,1531L108,1728L246,1532Z" fill="#b8d2f2" stroke="#b8d2f2" stroke-width="1.51"/><path d="M1392,-324L349,-245L855,-234Z" fill="#e3ecf2" stroke="#e3ecf2" stroke-width="1.51"/><path d="M855,-234L349,-245L505,-159Z" fill="#e8eff4" stroke="#e8eff4" stroke-width="1.51"/><path d="M277,-116L236,-207L177,-7Z" fill="#dfe8ee" stroke="#dfe8ee" stroke-width="1.51"/><path d="M-302,873L-176,952L-111,825Z" fill="#d5e2f4" stroke="#d5e2f4" stroke-width="1.51"/><path d="M-111,825L-176,952L11,929Z" fill="#d4e1f4" stroke="#d4e1f4" stroke-width="1.51"/><path d="M22,1531L-48,1826L108,1728Z" fill="#b4cff0" stroke="#b4cff0" stroke-width="1.51"/><path d="M-146,1271L-59,1502L170,1244Z" fill="#bdd3f1" stroke="#bdd3f1" stroke-width="1.51"/><path d="M2788,354L2533,335L2606,622Z" fill="#c3d9f9" stroke="#c3d9f9" stroke-width="1.51"/><path d="M2579,-86L2333,-296L2220,-32Z" fill="#b7d0f0" stroke="#b7d0f0" stroke-width="1.51"/><path d="M2788,354L2606,622L2860,555Z" fill="#c0d8f8" stroke="#c0d8f8" stroke-width="1.51"/><path d="M-226,1169L-146,1271L11,929Z" fill="#c8d9f3" stroke="#c8d9f3" stroke-width="1.51"/><path d="M2860,555L2606,622L2738,738Z" fill="#bcd7f7" stroke="#bcd7f7" stroke-width="1.51"/><path d="M2579,-86L2220,-32L2427,76Z" fill="#b7d0f0" stroke="#b7d0f0" stroke-width="1.51"/><path d="M2162,-182L2333,-296L2076,-164Z" fill="#bbd2f1" stroke="#bbd2f1" stroke-width="1.51"/><path d="M2814,1020L2860,555L2738,738Z" fill="#b6d2f9" stroke="#b6d2f9" stroke-width="1.51"/><path d="M2766,1288L2828,1340L2814,1020Z" fill="#9bc3f8" stroke="#9bc3f8" stroke-width="1.51"/><path d="M2874,1565L2551,1464L2517,1525Z" fill="#8ebcf6" stroke="#8ebcf6" stroke-width="1.51"/><path d="M2874,1565L2860,555L2814,1020Z" fill="#a6c9f9" stroke="#a6c9f9" stroke-width="1.51"/><path d="M349,-245L236,-207L277,-116Z" fill="#e1e9f0" stroke="#e1e9f0" stroke-width="1.51"/><path d="M177,-7L-77,208L70,267Z" fill="#e2eaf0" stroke="#e2eaf0" stroke-width="1.51"/><path d="M2860,555L2785,268L2788,354Z" fill="#c4dafa" stroke="#c4dafa" stroke-width="1.51"/><path d="M2788,354L2785,268L2533,335Z" fill="#c6dbfa" stroke="#c6dbfa" stroke-width="1.51"/><path d="M2558,-285L2579,-86L2721,-218Z" fill="#b3cef0" stroke="#b3cef0" stroke-width="1.51"/><path d="M2674,118L2579,-86L2427,76Z" fill="#b5d0f1" stroke="#b5d0f1" stroke-width="1.51"/><path d="M-48,1826L170,1947L108,1728Z" fill="#b6d0f1" stroke="#b6d0f1" stroke-width="1.51"/><path d="M108,1728L170,1947L312,1900Z" fill="#bad3f4" stroke="#bad3f4" stroke-width="1.51"/><path d="M312,1900L265,2089L520,1999Z" fill="#c1d8f7" stroke="#c1d8f7" stroke-width="1.51"/><path d="M520,1999L265,2089L910,2072Z" fill="#c5dbfa" stroke="#c5dbfa" stroke-width="1.51"/><path d="M-111,-34L-77,208L177,-7Z" fill="#dae4ec" stroke="#dae4ec" stroke-width="1.51"/><path d="M-66,453L-219,562L-51,658Z" fill="#e2ecf2" stroke="#e2ecf2" stroke-width="1.51"/><path d="M-176,952L-226,1169L11,929Z" fill="#ceddf4" stroke="#ceddf4" stroke-width="1.51"/><path d="M-146,1271L-186,1375L-59,1502Z" fill="#bbd2f1" stroke="#bbd2f1" stroke-width="1.51"/><path d="M-302,873L-226,1169L-176,952Z" fill="#cfdef4" stroke="#cfdef4" stroke-width="1.51"/><path d="M-336,387L-219,562L-66,453Z" fill="#e5edf3" stroke="#e5edf3" stroke-width="1.51"/><path d="M-226,1169L-186,1375L-146,1271Z" fill="#bfd4f2" stroke="#bfd4f2" stroke-width="1.51"/><path d="M-59,1502L-176,1598L22,1531Z" fill="#b5cff0" stroke="#b5cff0" stroke-width="1.51"/><path d="M170,1947L265,2089L312,1900Z" fill="#bcd5f5" stroke="#bcd5f5" stroke-width="1.51"/><path d="M910,2072L2851,2131L2061,2064Z" fill="#9bc3f8" stroke="#9bc3f8" stroke-width="1.51"/><path d="M-219,562L-302,873L-111,825Z" fill="#dbe6f2" stroke="#dbe6f2" stroke-width="1.51"/><path d="M-291,1740L-176,1598L-186,1375Z" fill="#b4cff0" stroke="#b4cff0" stroke-width="1.51"/><path d="M2495,1813L2874,1565L2517,1525Z" fill="#8abbf5" stroke="#8abbf5" stroke-width="1.51"/><path d="M2650,1950L2659,1916L2495,1813Z" fill="#8abbf5" stroke="#8abbf5" stroke-width="1.51"/><path d="M2650,1950L2495,1813L2378,1943Z" fill="#8cbbf5" stroke="#8cbbf5" stroke-width="1.51"/><path d="M2825,1862L2874,1565L2495,1813Z" fill="#8abbf5" stroke="#8abbf5" stroke-width="1.51"/><path d="M2828,1340L2874,1565L2814,1020Z" fill="#96c0f7" stroke="#96c0f7" stroke-width="1.51"/><path d="M170,1947L-84,2092L265,2089Z" fill="#b7d1f2" stroke="#b7d1f2" stroke-width="1.51"/><path d="M-186,1375L-176,1598L-59,1502Z" fill="#b7d0f0" stroke="#b7d0f0" stroke-width="1.51"/><path d="M-291,1740L-186,1375L-226,1169Z" fill="#b9d1f1" stroke="#b9d1f1" stroke-width="1.51"/><path d="M-176,1598L-48,1826L22,1531Z" fill="#b3cef0" stroke="#b3cef0" stroke-width="1.51"/><path d="M2659,1916L2825,1862L2495,1813Z" fill="#8abbf5" stroke="#8abbf5" stroke-width="1.51"/><path d="M2851,2131L2650,1950L2378,1943Z" fill="#8abbf5" stroke="#8abbf5" stroke-width="1.51"/><path d="M2721,-218L2579,-86L2897,-122Z" fill="#b3cef0" stroke="#b3cef0" stroke-width="1.51"/><path d="M2579,-86L2558,-285L2333,-296Z" fill="#b5cff0" stroke="#b5cff0" stroke-width="1.51"/><path d="M-77,208L-336,387L-66,453Z" fill="#e8eff4" stroke="#e8eff4" stroke-width="1.51"/><path d="M-219,562L-336,387L-302,873Z" fill="#e1ebf2" stroke="#e1ebf2" stroke-width="1.51"/><path d="M-117,-208L-111,-34L177,-7Z" fill="#d7e2ea" stroke="#d7e2ea" stroke-width="1.51"/><path d="M-340,106L-336,387L-77,208Z" fill="#e4ecf1" stroke="#e4ecf1" stroke-width="1.51"/><path d="M2897,-122L2579,-86L2674,118Z" fill="#b3cef0" stroke="#b3cef0" stroke-width="1.51"/><path d="M2897,-122L2674,118L2785,268Z" fill="#b8d2f3" stroke="#b8d2f3" stroke-width="1.51"/><path d="M2650,1950L2825,1862L2659,1916Z" fill="#8abbf5" stroke="#8abbf5" stroke-width="1.51"/><path d="M-111,-34L-193,-36L-77,208Z" fill="#d9e4eb" stroke="#d9e4eb" stroke-width="1.51"/><path d="M-117,-208L-193,-36L-111,-34Z" fill="#d7e2ea" stroke="#d7e2ea" stroke-width="1.51"/><path d="M236,-207L-117,-208L177,-7Z" fill="#dae4ec" stroke="#dae4ec" stroke-width="1.51"/><path d="M-169,-265L-117,-208L236,-207Z" fill="#d7e2ea" stroke="#d7e2ea" stroke-width="1.51"/><path d="M-176,1598L-291,1740L-48,1826Z" fill="#b3cef0" stroke="#b3cef0" stroke-width="1.51"/><path d="M-48,1826L-84,2092L170,1947Z" fill="#b4cff0" stroke="#b4cff0" stroke-width="1.51"/><path d="M-302,873L-291,1740L-226,1169Z" fill="#c0d4f2" stroke="#c0d4f2" stroke-width="1.51"/><path d="M-336,387L-291,1740L-302,873Z" fill="#cfdef4" stroke="#cfdef4" stroke-width="1.51"/><path d="M2874,1565L2897,-122L2860,555Z" fill="#bbd6f8" stroke="#bbd6f8" stroke-width="1.51"/><path d="M2860,555L2897,-122L2785,268Z" fill="#c1d8f7" stroke="#c1d8f7" stroke-width="1.51"/><path d="M-169,-265L-340,106L-193,-36Z" fill="#d7e2ea" stroke="#d7e2ea" stroke-width="1.51"/><path d="M-193,-36L-340,106L-77,208Z" fill="#dce6ed" stroke="#dce6ed" stroke-width="1.51"/><path d="M-164,2012L-84,2092L-48,1826Z" fill="#b3cef0" stroke="#b3cef0" stroke-width="1.51"/><path d="M-291,1740L-164,2012L-48,1826Z" fill="#b3cef0" stroke="#b3cef0" stroke-width="1.51"/><path d="M-117,-208L-169,-265L-193,-36Z" fill="#d7e2ea" stroke="#d7e2ea" stroke-width="1.51"/><path d="M349,-245L-169,-265L236,-207Z" fill="#dce5ed" stroke="#dce5ed" stroke-width="1.51"/><path d="M1392,-324L-169,-265L349,-245Z" fill="#e9eff4" stroke="#e9eff4" stroke-width="1.51"/><path d="M-84,2092L2851,2131L265,2089Z" fill="#bcd7f7" stroke="#bcd7f7" stroke-width="1.51"/><path d="M265,2089L2851,2131L910,2072Z" fill="#b2d0f9" stroke="#b2d0f9" stroke-width="1.51"/><path d="M2061,2064L2851,2131L2378,1943Z" fill="#8ebcf6" stroke="#8ebcf6" stroke-width="1.51"/><path d="M2650,1950L2851,2131L2825,1862Z" fill="#8abbf5" stroke="#8abbf5" stroke-width="1.51"/><path d="M2825,1862L2851,2131L2874,1565Z" fill="#8abbf5" stroke="#8abbf5" stroke-width="1.51"/></svg>