<svg width="1024" height="768" xmlns="http://www.w3.org/2000/svg">

 <g>
  <title>background</title>
  <rect fill="none" id="canvas_background" height="770" width="1026" y="-1" x="-1"/>
 </g>
 <g>
  <title>Up_House</title>
  <path transform="rotate(3.2084555625915527 440.00390624999966,408.1640625000002) " id="svg_1" fill="#ff5023" d="m450.88281,395.32422l5.1211,25.67969l-32,0l5.11718,-25.67969c7.21094,1.11719 14.55079,1.11719 21.76172,0zm0,0"/>
  <path id="svg_2" fill="#ffc477" d="m597.00391,585.72266l0,125.28125c0,4.41797 -3.58203,8 -8,8l-144,0c-4.41797,0 -8,-3.58203 -8,-8l0,-125.28125l80,-58.71875l80,58.71875zm0,0"/>
  <path id="svg_3" fill="#e6e7e8" d="m541.00391,655.00391l32,0l0,32l-32,0l0,-32zm0,0"/>
  <path id="svg_4" fill="#8b5e3c" d="m469.00391,655.00391l48,0l0,64l-48,0l0,-64zm0,0"/>
  <path id="svg_5" fill="#ffd422" d="m541.00391,599.00391c0,13.2539 -10.7461,24 -24,24c-13.25782,0 -24,-10.7461 -24,-24c0,-13.25782 10.74218,-24 24,-24c13.2539,0 24,10.74218 24,24zm0,0"/>
  <path transform="rotate(3.2084555625915527 626.9888916015618,231.3252563476552) " stroke="null" id="svg_6" fill="#ffcd00" d="m523.24219,426.96094l-8.39844,24.80078l-27.67969,-16l17.27735,-19.67969c5.67578,4.56641 12.01562,8.23828 18.80078,10.87891zm0,0"/>
  <path transform="rotate(3.2084555625915527 621.9888916015626,229.3252563476562) " id="svg_7" fill="#00b39d" d="m400.5625,415.08203l17.28125,19.67969l-27.67969,16l-8.40234,-24.80078c6.78906,-2.64063 13.12891,-6.3125 18.80078,-10.87891zm0,0"/>
  <path id="svg_11" fill="#ffb655" d="m525.00391,532.84375l-72,52.87891l-16,11.76172l0,-11.76172l80,-58.71875l8,5.83984zm0,0"/>
  <path id="svg_12" fill="#d1d3d4" d="m541.00391,655.00391l16,0l0,32l-16,0l0,-32zm0,0"/>
  <path id="svg_13" fill="#754c29" d="m469.00391,655.00391l16,0l0,64l-16,0l0,-64zm0,0"/>
  <path id="svg_14" fill="#754c29" d="m469.00391,655.00391l48,0l0,8l-48,0l0,-8zm0,0"/>
  <path id="svg_15" fill="#ff6243" d="m647.72266,594.68359c-0.00782,5.39454 -3.04688,10.32813 -7.86328,12.76172c-4.8125,2.4336 -10.58985,1.95313 -14.9375,-1.24218l-27.91797,-20.48047l-80,-58.71875l-80,58.71875l-27.92188,20.48047c-2.44531,1.76171 -5.38281,2.71484 -8.39844,2.71875c-4.79687,0 -9.28515,-2.36329 -12,-6.32032c-4.2539,-6.45703 -2.6289,-15.125 3.67969,-19.59765l124.64063,-88l124.64062,88c3.78906,2.68359 6.05469,7.03125 6.07813,11.67968zm0,0"/>
  <path id="svg_16" d="m533.00391,655.00391l0,32c0,4.41797 3.58203,8 8,8l32,0c4.41797,0 8,-3.58203 8,-8l0,-32c0,-4.41797 -3.58203,-8 -8,-8l-32,0c-4.41797,0 -8,3.58203 -8,8zm16,8l16,0l0,16l-16,0l0,-16zm0,0"/>
  <path id="svg_17" d="m485.00391,599.00391c0,17.67187 14.32422,32 32,32c17.67187,0 32,-14.32813 32,-32c0,-17.67578 -14.32813,-32 -32,-32c-17.67578,0 -32,14.32422 -32,32zm48,0c0,8.83593 -7.16407,16 -16,16c-8.83594,0 -16,-7.16407 -16,-16c0,-8.83594 7.16406,-16 16,-16c8.83593,0 16,7.16406 16,16zm0,0"/>
  <path transform="rotate(17 565.2031249999993,444.92187500000006) " id="svg_23" fill="#EDB6DC" d="m583.24219,437.96094l-8.39844,24.80078l-27.67969,-16l17.27735,-19.67969c5.67578,4.56641 12.01562,8.23828 18.80078,10.87891zm0,0"/>
  <path transform="rotate(3.2084555625915527 532.4888916015625,362.325256347656) " id="svg_9" fill="#ffd422" d="m561.00391,308.16406c12.87109,7.41016 22.26953,19.64063 26.10937,33.98828c3.84375,14.34766 1.81641,29.63672 -5.6289,42.49219c-13.60157,23.59766 -47.92188,44.23828 -74.24219,38.31641c-7.26563,-1.52735 -13.85156,-5.33985 -18.80078,-10.87891c-6.53125,-7.5625 -10.84766,-16.78125 -12.48047,-26.64062c12.89453,-14.89844 20.3164,-33.75 21.04297,-53.4375c0.03125,-5.48047 -0.77735,-10.92969 -2.40235,-16.16016c18.02735,-16.90234 44.99219,-20.02344 66.40235,-7.67969zm0,0"/>
  <path transform="rotate(3.2084555625915527 619.488891601563,387.3252563476574) " id="svg_24" fill="#D3BEE7" d="m648.00391,333.16406c12.87109,7.41016 22.26953,19.64063 26.10937,33.98828c3.84375,14.34766 1.81641,29.63672 -5.6289,42.49219c-13.60157,23.59766 -47.92188,44.23828 -74.24219,38.31641c-7.26563,-1.52735 -13.85156,-5.33985 -18.80078,-10.87891c-6.53125,-7.5625 -10.84766,-16.78125 -12.48047,-26.64062c12.89453,-14.89844 20.3164,-33.75 21.04297,-53.4375c0.03125,-5.48047 -0.77735,-10.92969 -2.40235,-16.16016c18.02735,-16.90234 44.99219,-20.02344 66.40235,-7.67969zm0,0"/>
  <path stroke="null" transform="rotate(3.2084555625915527 443.00381469726597,332.0327148437504) " id="svg_8" fill="#ff6243" d="m498.593083,307.508839c1.68538,5.302889 2.524025,10.827558 2.491614,16.383908c-0.753567,19.960087 -8.45121,39.07266 -21.82486,54.177379c-6.543008,7.85334 -15.188674,13.778001 -24.972797,17.116564c-7.345176,2.269271 -15.22513,2.269271 -22.570316,0c-9.780057,-3.338563 -18.425734,-9.263224 -24.972786,-17.116564c-13.37365,-15.104719 -21.071303,-34.217292 -21.820805,-54.177379c-0.036466,-5.556351 0.802168,-11.081019 2.487548,-16.383908c7.414053,-23.952104 29.99247,-40.332049 55.593234,-40.332049c25.596698,0 48.175125,16.379944 55.589168,40.332049zm0,0"/>
  <path transform="rotate(3.2084555625915527 349.5154418945312,350.2894897460933) " id="svg_10" fill="#00ccb3" d="m374.76172,410.96094c-26.32031,5.92187 -60.64063,-14.71875 -74.23828,-38.31641c-13.92578,-24.0625 -8.08985,-54.69531 13.70312,-71.95312c21.79297,-17.25782 52.94922,-15.91797 73.17578,3.15234c-1.625,5.23047 -2.43359,10.67969 -2.39843,16.16016c0.72265,19.6875 8.14453,38.53906 21.03906,53.4375c-1.62891,9.85937 -5.94922,19.07812 -12.48047,26.64062c-4.94531,5.53906 -11.53516,9.35156 -18.80078,10.87891zm0,0"/>
  <path stroke="null" transform="rotate(3.2084555625915527 547.9888916015619,286.32525634765585) " id="svg_33" fill="#8B4D4B" d="m576.663963,227.621647c12.943336,8.031638 22.394529,21.287859 26.255922,36.838823c3.865325,15.550976 1.826606,32.122305 -5.660495,46.055943c-13.677916,25.576758 -48.190866,47.948475 -74.658912,41.529947c-7.306412,-1.655446 -13.929309,-5.787695 -18.906309,-11.791307c-6.56791,-8.196755 -10.908548,-18.188667 -12.550523,-28.874927c12.966907,-16.147949 20.430436,-36.580559 21.161084,-57.919219c0.031425,-5.940108 -0.781713,-11.846346 -2.415834,-17.515487c18.128538,-18.319913 45.244732,-21.702774 66.775067,-8.323773zm0,0"/>
  <path transform="rotate(3.2084555625915527 429.0037841796878,177.53271484375074) " stroke="null" id="svg_34" fill="#ff6243" d="m481.901954,141.398435c1.421878,5.43488 2.129405,11.097059 2.102061,16.791709c-0.63575,20.4569 -7.129902,40.04519 -18.412644,55.525871c-5.520038,8.048812 -12.813995,14.120939 -21.068415,17.542601c-6.196791,2.325753 -12.844751,2.325753 -19.041551,0c-8.25099,-3.421661 -15.544955,-9.493789 -21.068406,-17.542601c-11.282741,-15.48068 -17.776902,-35.068971 -18.409222,-55.525871c-0.030765,-5.69465 0.676753,-11.356829 2.098631,-16.791709c6.2549,-24.54828 25.303285,-41.335926 46.901488,-41.335926c21.594773,0 40.643166,16.787646 46.898058,41.335926zm0,0"/>
  <path stroke="null" transform="rotate(3.2084555625915527 374.0037841796884,249.03271484374912) " id="svg_30" fill="#BF7E96" d="m427.60156,224.84375c1.625,5.23047 2.4336,10.67969 2.40235,16.16016c-0.72657,19.6875 -8.14844,38.53906 -21.04297,53.4375c-6.3086,7.74609 -14.64453,13.58984 -24.07813,16.88281c-7.08203,2.23828 -14.67968,2.23828 -21.76172,0c-9.42968,-3.29297 -17.76562,-9.13672 -24.07812,-16.88281c-12.89453,-14.89844 -20.31641,-33.75 -21.03906,-53.4375c-0.03516,-5.48047 0.77343,-10.92969 2.39843,-16.16016c7.14844,-23.625 28.91797,-39.78125 53.60157,-39.78125c24.67968,0 46.44922,16.15625 53.59765,39.78125zm0,0"/>
  <path stroke="null" transform="rotate(3.2084555625915527 510.4888916015621,206.32525634765648) " id="svg_38" fill="#5B9BA2" d="m538.407452,147.594916c12.601869,8.035298 21.803717,21.297555 25.563246,36.855597c3.763345,15.558062 1.778411,32.136939 -5.511165,46.076914c-13.317069,25.588408 -46.919498,47.970316 -72.689258,41.548863c-7.113652,-1.656204 -13.561827,-5.790326 -18.407524,-11.79668c-6.394635,-8.200483 -10.620761,-18.196943 -12.219412,-28.88807c12.624807,-16.155304 19.891434,-36.597219 20.602808,-57.945597c0.030601,-5.942815 -0.761087,-11.851745 -2.352096,-17.523467c17.650263,-18.328253 44.051083,-21.712654 65.0134,-8.327561zm0,0"/>
  <path stroke="null" transform="rotate(3.2084555625915527 460.98889160156256,276.82525634765614) " id="svg_31" fill="#ffd422" d="m487.684487,224.127188c12.049843,7.209979 20.848611,19.110051 24.443448,33.070109c3.598498,13.960067 1.700513,28.836103 -5.269745,41.344291c-12.733715,22.960184 -44.864199,43.043211 -69.505128,37.281317c-6.802043,-1.48609 -12.967754,-5.195597 -17.601186,-10.585023c-6.11452,-7.358204 -10.155519,-16.327915 -11.684147,-25.920941c12.071788,-14.495968 19.020101,-32.838266 19.700312,-51.993921c0.029256,-5.332419 -0.727751,-10.634431 -2.249067,-15.723604c16.877105,-16.445734 42.12144,-19.48252 62.165513,-7.472228zm0,0"/>
  <path stroke="null" transform="rotate(3.2084555625915527 632.9888916015623,313.3252563476569) " id="svg_39" fill="#A0D58A" d="m661.66396,254.62165c12.94334,8.03164 22.39453,21.28786 26.25593,36.83882c3.86532,15.55098 1.8266,32.12231 -5.6605,46.05594c-13.67792,25.57676 -48.19087,47.94848 -74.65891,41.52995c-7.30641,-1.65545 -13.92931,-5.78769 -18.90631,-11.79131c-6.56791,-8.19675 -10.90855,-18.18866 -12.55052,-28.87492c12.9669,-16.14795 20.43043,-36.58056 21.16108,-57.91922c0.03143,-5.94011 -0.78171,-11.84635 -2.41583,-17.51549c18.12853,-18.31991 45.24473,-21.70277 66.77506,-8.32377zm0,0"/>
  <path stroke="null" transform="rotate(3.2084555625915527 620.9888916015625,234.32525634765682) " id="svg_40" fill="#E6C36A" d="m625.66396,169.62165c12.94334,8.03164 22.39453,21.28786 26.25593,36.83882c3.86532,15.55098 1.8266,32.12231 -5.6605,46.05594c-13.67792,25.57676 -48.19087,47.94848 -74.65891,41.52995c-7.30641,-1.65545 -13.92931,-5.78769 -18.90631,-11.79131c-6.56791,-8.19675 -10.90855,-18.18866 -12.55052,-28.87492c12.9669,-16.14795 20.43043,-36.58056 21.16108,-57.91922c0.03143,-5.94011 -0.78171,-11.84635 -2.41583,-17.51549c18.12853,-18.31991 45.24473,-21.70277 66.77506,-8.32377zm0,0"/>
  <path transform="rotate(3.2084555625915527 505.00381469726585,126.53271484374997) " stroke="null" id="svg_41" fill="#535F75" d="m551.90195,101.39843c1.42188,5.43488 2.12941,11.09706 2.10207,16.79171c-0.63576,20.4569 -7.12991,40.04519 -18.41265,55.52587c-5.52004,8.04882 -12.81399,14.12094 -21.06841,17.5426c-6.19679,2.32576 -12.84475,2.32576 -19.04155,0c-8.25099,-3.42166 -15.54496,-9.49378 -21.06841,-17.5426c-11.28274,-15.48068 -17.7769,-35.06897 -18.40922,-55.52587c-0.03077,-5.69465 0.67675,-11.35683 2.09863,-16.79171c6.2549,-24.54828 25.30328,-41.33592 46.90149,-41.33592c21.59477,0 40.64316,16.78764 46.89805,41.33592zm0,0"/>
  <path stroke="null" transform="rotate(3.2084555625915527 580.4888916015625,151.3252563476576) " id="svg_42" fill="#849854" d="m603.291926,98.409104c10.292825,7.239819 17.808616,19.189138 20.879285,33.206965c3.073786,14.017844 1.452552,28.955445 -4.501352,41.51539c-10.876979,23.055206 -38.322425,43.221349 -59.370385,37.435607c-5.810216,-1.492243 -11.076889,-5.217095 -15.034708,-10.628832c-5.222945,-7.388651 -8.674716,-16.395482 -9.980446,-26.028208c10.31156,-14.55596 16.246721,-32.974166 16.82775,-52.209096c0.024994,-5.354488 -0.621633,-10.678445 -1.92112,-15.788678c14.4162,-16.513792 35.979591,-19.563143 53.100976,-7.503149zm0,0"/>
  <path stroke="#000" transform="rotate(3.2084555625915527 619.9888916015636,236.32525634765696) " id="svg_59" d="m329.790556,387.58709l0,0c-10.963208,0 -19.852405,-13.095444 -19.852405,-29.254633c0,-16.15712 8.889198,-29.254633 19.852405,-29.254633l0,0c-6.247937,6.905849 -9.925521,17.744885 -9.925521,29.254633s3.677583,22.346714 9.925521,29.254633z" stroke-opacity="null" stroke-width="1.5" fill="#ffffff"/>
  <path stroke="#000" transform="rotate(3.2084555625915527 341.86434936523386,233.33245849609347) " id="svg_60" d="m351.79056,262.58709l0,0c-10.96321,0 -19.85241,-13.09544 -19.85241,-29.25463c0,-16.15712 8.8892,-29.25464 19.85241,-29.25464l0,0c-6.24794,6.90585 -9.92553,17.74489 -9.92553,29.25464s3.67759,22.34671 9.92553,29.25463z" stroke-opacity="null" stroke-width="1.5" fill="#ffffff"/>
  <path transform="rotate(20 411.3643798828126,142.33245849609372) " stroke="#000" id="svg_61" d="m419.890189,172.124641l0,0c-9.416541,0 -17.051669,-13.336068 -17.051669,-29.792181c0,-16.454006 7.635128,-29.792192 17.051669,-29.792192l0,0c-5.366492,7.032744 -8.525255,18.070951 -8.525255,29.792192s3.158763,22.757329 8.525255,29.792181z" stroke-opacity="null" stroke-width="1.5" fill="#ffffff"/>
  <path transform="rotate(21 481.8643188476562,101.33245849609364) " stroke="#000" id="svg_62" d="m491.79056,130.58709l0,0c-10.96321,0 -19.85241,-13.09544 -19.85241,-29.25463c0,-16.15712 8.8892,-29.25464 19.85241,-29.25464l0,0c-6.24794,6.90585 -9.92553,17.74489 -9.92553,29.25464s3.67759,22.34671 9.92553,29.25463z" stroke-opacity="null" stroke-width="1.5" fill="#ffffff"/>
  <path id="svg_66" d="m438.5,551.4375l33.5,-25.4375" opacity="0.5" stroke-width="null" stroke="#c96120" fill="#B8874D"/>
  <path stroke="#c96120" id="svg_68" d="m442.58333,546.4375l26.25,-15.79833l1.16667,-30.63917l-29,3.28277l1.58333,43.15473z" stroke-width="null" fill="#B8874D"/>
  <line stroke-linecap="null" stroke-linejoin="null" id="svg_75" y2="501.4375" x2="452.5" y1="430.4375" x1="391.5" stroke-opacity="null" stroke-width="1.5" stroke="#000" fill="none"/>
  <line stroke="#000" stroke-linecap="null" stroke-linejoin="null" id="svg_76" y2="502.437504" x2="453.500001" y1="421.4375" x1="439.5" stroke-opacity="null" stroke-width="1.5" fill="none"/>
  <line stroke="#000" stroke-linecap="null" stroke-linejoin="null" id="svg_77" y2="501.437497" x2="454.5" y1="435.437496" x1="488.5" stroke-opacity="null" stroke-width="1.5" fill="none"/>
  <line stroke="#000" stroke-linecap="null" stroke-linejoin="null" id="svg_78" y2="501.437501" x2="455.5" y1="453.4375" x1="558.500003" stroke-opacity="null" stroke-width="1.5" fill="none"/>
  <path stroke="#000" transform="rotate(45 450.8643798828125,241.8324584960938) " id="svg_79" d="m460.202112,264.849806l0,0c-10.313286,0 -18.675513,-10.303404 -18.675513,-23.017347c0,-12.712314 8.362228,-23.017354 18.675513,-23.017354l0,0c-5.877548,5.433476 -9.337122,13.96156 -9.337122,23.017354s3.459574,17.582242 9.337122,23.017347z" stroke-opacity="null" stroke-width="1.5" fill="#ffffff"/>
 </g>
</svg>